<svg xmlns="http://www.w3.org/2000/svg" viewBox="-24 -24 1926 1109.5" role="img" aria-label="Flat · disconnected" style="font-family:system-ui;background:white"><defs><marker id="stately-4-arrow0" markerWidth="7" markerHeight="7" refX="6" refY="3" orient="auto" markerUnits="userSpaceOnUse"><path d="M0,0 L6,3 L0,6" fill="#2563eb"/></marker><marker id="stately-4-arrow1" markerWidth="7" markerHeight="7" refX="6" refY="3" orient="auto" markerUnits="userSpaceOnUse"><path d="M0,0 L6,3 L0,6" fill="#9333ea"/></marker><marker id="stately-4-arrow2" markerWidth="7" markerHeight="7" refX="6" refY="3" orient="auto" markerUnits="userSpaceOnUse"><path d="M0,0 L6,3 L0,6" fill="#059669"/></marker><marker id="stately-4-arrow3" markerWidth="7" markerHeight="7" refX="6" refY="3" orient="auto" markerUnits="userSpaceOnUse"><path d="M0,0 L6,3 L0,6" fill="#d97706"/></marker><marker id="stately-4-arrow4" markerWidth="7" markerHeight="7" refX="6" refY="3" orient="auto" markerUnits="userSpaceOnUse"><path d="M0,0 L6,3 L0,6" fill="#db2777"/></marker></defs><g><title>N1 · 117 × 67 · parent none</title><rect x="24" y="30" width="117" height="67" rx="6" fill="#fff" stroke="#94a3b8"/><text x="34" y="53" font-size="13">N1</text></g><g><title>N2 · 144 × 98 · parent none</title><rect x="40" y="234" width="144" height="98" rx="6" fill="#fff" stroke="#94a3b8"/><text x="50" y="257" font-size="13">N2</text></g><g><title>N3 · 109 × 91 · parent none</title><rect x="732" y="335.5" width="109" height="91" rx="6" fill="#fff" stroke="#94a3b8"/><text x="742" y="358.5" font-size="13">N3</text></g><g><title>N4 · 102 × 84 · parent none</title><rect x="240" y="144" width="102" height="84" rx="6" fill="#fff" stroke="#94a3b8"/><text x="250" y="167" font-size="13">N4</text></g><g><title>N5 · 135 × 92 · parent none</title><rect x="1148" y="261" width="135" height="92" rx="6" fill="#fff" stroke="#94a3b8"/><text x="1158" y="284" font-size="13">N5</text></g><g><title>N6 · 102 × 83 · parent none</title><rect x="897" y="172" width="102" height="83" rx="6" fill="#fff" stroke="#94a3b8"/><text x="907" y="195" font-size="13">N6</text></g><g><title>N7 · 156 × 70 · parent none</title><rect x="1339" y="437" width="156" height="70" rx="6" fill="#fff" stroke="#94a3b8"/><text x="1349" y="460" font-size="13">N7</text></g><g><title>N8 · 86 × 75 · parent none</title><rect x="1148" y="390" width="86" height="75" rx="6" fill="#fff" stroke="#94a3b8"/><text x="1158" y="413" font-size="13">N8</text></g><g><title>N9 · 108 × 84 · parent none</title><rect x="240" y="481" width="108" height="84" rx="6" fill="#fff" stroke="#94a3b8"/><text x="250" y="504" font-size="13">N9</text></g><g><title>N10 · 93 × 55 · parent none</title><rect x="490" y="274.5" width="93" height="55" rx="6" fill="#fff" stroke="#94a3b8"/><text x="500" y="297.5" font-size="13">N10</text></g><g><title>N11 · 151 × 53 · parent none</title><rect x="173" y="24" width="151" height="53" rx="6" fill="#fff" stroke="#94a3b8"/><text x="183" y="47" font-size="13">N11</text></g><g><title>N12 · 152 × 66 · parent none</title><rect x="223" y="597" width="152" height="66" rx="6" fill="#fff" stroke="#94a3b8"/><text x="233" y="620" font-size="13">N12</text></g><g><title>N13 · 130 × 96 · parent none</title><rect x="1088" y="941.5" width="130" height="96" rx="6" fill="#fff" stroke="#94a3b8"/><text x="1098" y="964.5" font-size="13">N13</text></g><g><title>N14 · 146 × 79 · parent none</title><rect x="588" y="797" width="146" height="79" rx="6" fill="#fff" stroke="#94a3b8"/><text x="598" y="820" font-size="13">N14</text></g><g><title>N15 · 137 × 84 · parent none</title><rect x="30" y="679" width="137" height="84" rx="6" fill="#fff" stroke="#94a3b8"/><text x="40" y="702" font-size="13">N15</text></g><g><title>N16 · 89 × 67 · parent none</title><rect x="1480" y="868.5" width="89" height="67" rx="6" fill="#fff" stroke="#94a3b8"/><text x="1490" y="891.5" font-size="13">N16</text></g><g><title>N17 · 150 × 87 · parent none</title><rect x="1274" y="782.5" width="150" height="87" rx="6" fill="#fff" stroke="#94a3b8"/><text x="1284" y="805.5" font-size="13">N17</text></g><g><title>N18 · 84 × 94 · parent none</title><rect x="448" y="837" width="84" height="94" rx="6" fill="#fff" stroke="#94a3b8"/><text x="458" y="860" font-size="13">N18</text></g><g><title>N19 · 149 × 61 · parent none</title><rect x="790" y="881" width="149" height="61" rx="6" fill="#fff" stroke="#94a3b8"/><text x="800" y="904" font-size="13">N19</text></g><g><title>N20 · 123 × 70 · parent none</title><rect x="798.6666666666666" y="748" width="123" height="70" rx="6" fill="#fff" stroke="#94a3b8"/><text x="808.6666666666666" y="771" font-size="13">N20</text></g><g><title>N21 · 101 × 77 · parent none</title><rect x="431" y="724" width="101" height="77" rx="6" fill="#fff" stroke="#94a3b8"/><text x="441" y="747" font-size="13">N21</text></g><g><title>N22 · 148 × 90 · parent none</title><rect x="350" y="24" width="148" height="90" rx="6" fill="#fff" stroke="#94a3b8"/><text x="360" y="47" font-size="13">N22</text></g><polyline points="274,144 274,135 354,135 354,189 345,189" fill="none" stroke="#2563eb" stroke-width="1.8" marker-end="url(#stately-4-arrow0)"><title>E1: N4 → N4:east</title></polyline><polyline points="1218.5,258 1218.5,222 1088.5,222" fill="none" stroke="#9333ea" stroke-width="1.8" ><title>E2: N5:north → N6:west</title></polyline><polyline points="1058.5,216.5 999,216.5 999,255 885,255 885,216.5 894,216.5" fill="none" stroke="#9333ea" stroke-width="1.8" marker-end="url(#stately-4-arrow1)"><title>E2: N5:north → N6:west</title></polyline><polyline points="1218.5,258 1218.5,237 1109.5,237 1109.5,269 1088.5,269" fill="none" stroke="#059669" stroke-width="1.8" ><title>E3: N5:north → N6:south</title></polyline><polyline points="1058.5,269 999,269 999,279 951,279 951,258" fill="none" stroke="#059669" stroke-width="1.8" marker-end="url(#stately-4-arrow2)"><title>E3: N5:north → N6:south</title></polyline><polyline points="484.5,721 484.5,597 375,597" fill="none" stroke="#d97706" stroke-width="1.8" marker-end="url(#stately-4-arrow3)"><title>E4: N21:north → N12</title></polyline><polyline points="1336,475 849,475 849,489 801.5,489" fill="none" stroke="#db2777" stroke-width="1.8" ><title>E5: N7:west → N9:north</title></polyline><polyline points="771.5,489 348,489 348,469 297,469 297,478" fill="none" stroke="#db2777" stroke-width="1.8" marker-end="url(#stately-4-arrow4)"><title>E5: N7:west → N9:north</title></polyline><polyline points="1088,941.5 1067,941.5 1067,820 1013.5,820 1013.5,811" fill="none" stroke="#2563eb" stroke-width="1.8" ><title>E6: N13 → N20:east</title></polyline><polyline points="998.5,800 933.6666666666666,800 933.6666666666666,786 924.6666666666666,786" fill="none" stroke="#2563eb" stroke-width="1.8" marker-end="url(#stately-4-arrow0)"><title>E6: N13 → N20:east</title></polyline><polyline points="1194,387 1194,378 1127,378 1127,402 1097.5,402 1097.5,398 1088.5,398" fill="none" stroke="#9333ea" stroke-width="1.8" ><title>E7: N8:north → N3:east</title></polyline><polyline points="1058.5,398 853,398 853,384 844,384" fill="none" stroke="#9333ea" stroke-width="1.8" marker-end="url(#stately-4-arrow1)"><title>E7: N8:north → N3:east</title></polyline><polyline points="1271,829 1239,829 1239,941.5 1218,941.5" fill="none" stroke="#059669" stroke-width="1.8" marker-end="url(#stately-4-arrow2)"><title>E8: N17:west → N13</title></polyline><polyline points="490,274.5 434,274.5" fill="none" stroke="#d97706" stroke-width="1.8" ><title>E9: N10 → N9:south</title></polyline><polyline points="419,293.5 419,477 348,477 348,577 297,577 297,568" fill="none" stroke="#d97706" stroke-width="1.8" marker-end="url(#stately-4-arrow3)"><title>E9: N10 → N9:south</title></polyline><polyline points="297,568 297,577 28,577 28,286 37,286" fill="none" stroke="#db2777" stroke-width="1.8" marker-end="url(#stately-4-arrow4)"><title>E10: N9:south → N2:west</title></polyline><polyline points="1088,941.5 1013.5,941.5 1013.5,864.5" fill="none" stroke="#2563eb" stroke-width="1.8" ><title>E11: N13 → N14:east</title></polyline><polyline points="995,853.5 782,853.5 782,839.5 737,839.5" fill="none" stroke="#2563eb" stroke-width="1.8" marker-end="url(#stately-4-arrow0)"><title>E11: N13 → N14:east</title></polyline><polyline points="294,231 294,240 184,240 184,234 28,234 28,286 37,286" fill="none" stroke="#9333ea" stroke-width="1.8" marker-end="url(#stately-4-arrow1)"><title>E12: N4:south → N2:west</title></polyline><polyline points="1527.5,938.5 1527.5,947.5 1387.5,947.5 1387.5,916.5 1367.5,916.5" fill="none" stroke="#059669" stroke-width="1.8" ><title>E13: N16:south → N13</title></polyline><polyline points="1330.5,916.5 1227,916.5 1227,941.5 1218,941.5" fill="none" stroke="#059669" stroke-width="1.8" marker-end="url(#stately-4-arrow2)"><title>E13: N16:south → N13</title></polyline><polyline points="798.6666666666666,748 746,748 746,839.5 737,839.5" fill="none" stroke="#d97706" stroke-width="1.8" marker-end="url(#stately-4-arrow3)"><title>E14: N20 → N14:east</title></polyline><polyline points="1156,1040.5 1156,1049.5 1041,1049.5 1041,962 1032,962" fill="none" stroke="#db2777" stroke-width="1.8" ><title>E15: N13:south → N19:south</title></polyline><polyline points="995,962 867.5,962 867.5,945" fill="none" stroke="#db2777" stroke-width="1.8" marker-end="url(#stately-4-arrow4)"><title>E15: N13:south → N19:south</title></polyline><polyline points="1148,390 1096.5,390 1096.5,361 1073.5,361 1073.5,316" fill="none" stroke="#2563eb" stroke-width="1.8" ><title>E16: N8 → N6</title></polyline><polyline points="1073.5,294 1073.5,280 1000,280 1000,172 999,172" fill="none" stroke="#2563eb" stroke-width="1.8" marker-end="url(#stately-4-arrow0)"><title>E16: N8 → N6</title></polyline><polyline points="789.5,332.5 789.5,323.5 685,323.5 685,343.5 676,343.5" fill="none" stroke="#9333ea" stroke-width="1.8" ><title>E17: N3:north → N10:south</title></polyline><polyline points="639,343.5 539.5,343.5 539.5,332.5" fill="none" stroke="#9333ea" stroke-width="1.8" marker-end="url(#stately-4-arrow1)"><title>E17: N3:north → N10:south</title></polyline><polyline points="894,216.5 853,216.5 853,384 844,384" fill="none" stroke="#059669" stroke-width="1.8" marker-end="url(#stately-4-arrow2)"><title>E18: N6:west → N3:east</title></polyline><polyline points="431,724 326.5,724 326.5,710 317.5,710" fill="none" stroke="#d97706" stroke-width="1.8" ><title>E19: N21 → N15:east</title></polyline><polyline points="280.5,710 179,710 179,724 170,724" fill="none" stroke="#d97706" stroke-width="1.8" marker-end="url(#stately-4-arrow3)"><title>E19: N21 → N15:east</title></polyline><polyline points="795.6666666666666,786 540,786 540,943 493,943 493,934" fill="none" stroke="#db2777" stroke-width="1.8" marker-end="url(#stately-4-arrow4)"><title>E20: N20:west → N18:south</title></polyline><polyline points="1156,1040.5 1156,1061.5 1309.5,1061.5 1309.5,955.5 1330.5,955.5" fill="none" stroke="#2563eb" stroke-width="1.8" ><title>E21: N13:south → N16:south</title></polyline><polyline points="1367.5,955.5 1388.5,955.5 1388.5,959.5 1527.5,959.5 1527.5,938.5" fill="none" stroke="#2563eb" stroke-width="1.8" marker-end="url(#stately-4-arrow0)"><title>E21: N13:south → N16:south</title></polyline><polyline points="867.5,945 867.5,962 679.5,962" fill="none" stroke="#9333ea" stroke-width="1.8" ><title>E22: N19:south → N12:west</title></polyline><polyline points="642.5,962 211,962 211,633 220,633" fill="none" stroke="#9333ea" stroke-width="1.8" marker-end="url(#stately-4-arrow1)"><title>E22: N19:south → N12:west</title></polyline><polyline points="790,881 742,881 742,923 679.5,923" fill="none" stroke="#059669" stroke-width="1.8" ><title>E23: N19 → N18:south</title></polyline><polyline points="642.5,923 532,923 532,943 493,943 493,934" fill="none" stroke="#059669" stroke-width="1.8" marker-end="url(#stately-4-arrow2)"><title>E23: N19 → N18:south</title></polyline><polyline points="37,286 28,286 28,234 205,234 205,258 639,258" fill="none" stroke="#d97706" stroke-width="1.8" ><title>E24: N2:west → N8:north</title></polyline><polyline points="676,258 873,258 873,378 1194,378 1194,387" fill="none" stroke="#d97706" stroke-width="1.8" marker-end="url(#stately-4-arrow3)"><title>E24: N2:west → N8:north</title></polyline><polyline points="795.6666666666666,786 777.6666666666666,786 777.6666666666666,704 679.5,704" fill="none" stroke="#db2777" stroke-width="1.8" ><title>E25: N20:west → N21:north</title></polyline><polyline points="642.5,704 484.5,704 484.5,721" fill="none" stroke="#db2777" stroke-width="1.8" marker-end="url(#stately-4-arrow4)"><title>E25: N20:west → N21:north</title></polyline><polyline points="1339,437 1292,437 1292,261 1283,261" fill="none" stroke="#2563eb" stroke-width="1.8" marker-end="url(#stately-4-arrow0)"><title>E26: N7 → N5</title></polyline><polyline points="664,794 664,774 552,774 552,943 493,943 493,934" fill="none" stroke="#9333ea" stroke-width="1.8" marker-end="url(#stately-4-arrow1)"><title>E27: N14:north → N18:south</title></polyline><rect x="1058.5" y="211" width="30" height="22" rx="4" fill="#fff" stroke="#cbd5e1"/><text x="1066.5" y="226" font-size="11">E2</text><rect x="1058.5" y="258" width="30" height="22" rx="4" fill="#fff" stroke="#cbd5e1"/><text x="1066.5" y="273" font-size="11">E3</text><rect x="771.5" y="478" width="30" height="22" rx="4" fill="#fff" stroke="#cbd5e1"/><text x="779.5" y="493" font-size="11">E5</text><rect x="998.5" y="789" width="30" height="22" rx="4" fill="#fff" stroke="#cbd5e1"/><text x="1006.5" y="804" font-size="11">E6</text><rect x="1058.5" y="387" width="30" height="22" rx="4" fill="#fff" stroke="#cbd5e1"/><text x="1066.5" y="402" font-size="11">E7</text><rect x="404" y="271.5" width="30" height="22" rx="4" fill="#fff" stroke="#cbd5e1"/><text x="412" y="286.5" font-size="11">E9</text><rect x="995" y="842.5" width="37" height="22" rx="4" fill="#fff" stroke="#cbd5e1"/><text x="1003" y="857.5" font-size="11">E11</text><rect x="1330.5" y="905.5" width="37" height="22" rx="4" fill="#fff" stroke="#cbd5e1"/><text x="1338.5" y="920.5" font-size="11">E13</text><rect x="995" y="951" width="37" height="22" rx="4" fill="#fff" stroke="#cbd5e1"/><text x="1003" y="966" font-size="11">E15</text><rect x="1055" y="294" width="37" height="22" rx="4" fill="#fff" stroke="#cbd5e1"/><text x="1063" y="309" font-size="11">E16</text><rect x="639" y="332.5" width="37" height="22" rx="4" fill="#fff" stroke="#cbd5e1"/><text x="647" y="347.5" font-size="11">E17</text><rect x="280.5" y="699" width="37" height="22" rx="4" fill="#fff" stroke="#cbd5e1"/><text x="288.5" y="714" font-size="11">E19</text><rect x="1330.5" y="944.5" width="37" height="22" rx="4" fill="#fff" stroke="#cbd5e1"/><text x="1338.5" y="959.5" font-size="11">E21</text><rect x="642.5" y="951" width="37" height="22" rx="4" fill="#fff" stroke="#cbd5e1"/><text x="650.5" y="966" font-size="11">E22</text><rect x="642.5" y="912" width="37" height="22" rx="4" fill="#fff" stroke="#cbd5e1"/><text x="650.5" y="927" font-size="11">E23</text><rect x="639" y="247" width="37" height="22" rx="4" fill="#fff" stroke="#cbd5e1"/><text x="647" y="262" font-size="11">E24</text><rect x="642.5" y="693" width="37" height="22" rx="4" fill="#fff" stroke="#cbd5e1"/><text x="650.5" y="708" font-size="11">E25</text><circle cx="144" cy="66.5" r="3.5" fill="#0f172a"><title>N1:east</title></circle><circle cx="85.5" cy="27" r="3.5" fill="#0f172a"><title>N1:north</title></circle><circle cx="37" cy="286" r="3.5" fill="#0f172a"><title>N2:west</title></circle><circle cx="187" cy="286" r="3.5" fill="#0f172a"><title>N2:east</title></circle><circle cx="844" cy="384" r="3.5" fill="#0f172a"><title>N3:east</title></circle><circle cx="789.5" cy="332.5" r="3.5" fill="#0f172a"><title>N3:north</title></circle><circle cx="345" cy="189" r="3.5" fill="#0f172a"><title>N4:east</title></circle><circle cx="294" cy="231" r="3.5" fill="#0f172a"><title>N4:south</title></circle><circle cx="1218.5" cy="258" r="3.5" fill="#0f172a"><title>N5:north</title></circle><circle cx="894" cy="216.5" r="3.5" fill="#0f172a"><title>N6:west</title></circle><circle cx="951" cy="258" r="3.5" fill="#0f172a"><title>N6:south</title></circle><circle cx="1336" cy="475" r="3.5" fill="#0f172a"><title>N7:west</title></circle><circle cx="1498" cy="475" r="3.5" fill="#0f172a"><title>N7:east</title></circle><circle cx="1420" cy="510" r="3.5" fill="#0f172a"><title>N7:south</title></circle><circle cx="1194" cy="387" r="3.5" fill="#0f172a"><title>N8:north</title></circle><circle cx="297" cy="478" r="3.5" fill="#0f172a"><title>N9:north</title></circle><circle cx="297" cy="568" r="3.5" fill="#0f172a"><title>N9:south</title></circle><circle cx="487" cy="305" r="3.5" fill="#0f172a"><title>N10:west</title></circle><circle cx="539.5" cy="271.5" r="3.5" fill="#0f172a"><title>N10:north</title></circle><circle cx="539.5" cy="332.5" r="3.5" fill="#0f172a"><title>N10:south</title></circle><circle cx="170" cy="53.5" r="3.5" fill="#0f172a"><title>N11:west</title></circle><circle cx="327" cy="53.5" r="3.5" fill="#0f172a"><title>N11:east</title></circle><circle cx="251.5" cy="80" r="3.5" fill="#0f172a"><title>N11:south</title></circle><circle cx="220" cy="633" r="3.5" fill="#0f172a"><title>N12:west</title></circle><circle cx="302" cy="594" r="3.5" fill="#0f172a"><title>N12:north</title></circle><circle cx="1085" cy="992.5" r="3.5" fill="#0f172a"><title>N13:west</title></circle><circle cx="1156" cy="938.5" r="3.5" fill="#0f172a"><title>N13:north</title></circle><circle cx="1156" cy="1040.5" r="3.5" fill="#0f172a"><title>N13:south</title></circle><circle cx="737" cy="839.5" r="3.5" fill="#0f172a"><title>N14:east</title></circle><circle cx="664" cy="794" r="3.5" fill="#0f172a"><title>N14:north</title></circle><circle cx="27" cy="724" r="3.5" fill="#0f172a"><title>N15:west</title></circle><circle cx="170" cy="724" r="3.5" fill="#0f172a"><title>N15:east</title></circle><circle cx="101.5" cy="676" r="3.5" fill="#0f172a"><title>N15:north</title></circle><circle cx="1572" cy="905" r="3.5" fill="#0f172a"><title>N16:east</title></circle><circle cx="1527.5" cy="865.5" r="3.5" fill="#0f172a"><title>N16:north</title></circle><circle cx="1527.5" cy="938.5" r="3.5" fill="#0f172a"><title>N16:south</title></circle><circle cx="1271" cy="829" r="3.5" fill="#0f172a"><title>N17:west</title></circle><circle cx="493" cy="834" r="3.5" fill="#0f172a"><title>N18:north</title></circle><circle cx="493" cy="934" r="3.5" fill="#0f172a"><title>N18:south</title></circle><circle cx="787" cy="914.5" r="3.5" fill="#0f172a"><title>N19:west</title></circle><circle cx="867.5" cy="878" r="3.5" fill="#0f172a"><title>N19:north</title></circle><circle cx="867.5" cy="945" r="3.5" fill="#0f172a"><title>N19:south</title></circle><circle cx="795.6666666666666" cy="786" r="3.5" fill="#0f172a"><title>N20:west</title></circle><circle cx="924.6666666666666" cy="786" r="3.5" fill="#0f172a"><title>N20:east</title></circle><circle cx="428" cy="765.5" r="3.5" fill="#0f172a"><title>N21:west</title></circle><circle cx="484.5" cy="721" r="3.5" fill="#0f172a"><title>N21:north</title></circle></svg>