<svg xmlns="http://www.w3.org/2000/svg" viewBox="-24 -24 2562 995" role="img" aria-label="Stately native" style="font-family:system-ui;background:white"><defs><marker id="native-8-arrow0" markerWidth="7" markerHeight="7" refX="6" refY="3" orient="auto" markerUnits="userSpaceOnUse"><path d="M0,0 L6,3 L0,6" fill="#2563eb"/></marker><marker id="native-8-arrow1" markerWidth="7" markerHeight="7" refX="6" refY="3" orient="auto" markerUnits="userSpaceOnUse"><path d="M0,0 L6,3 L0,6" fill="#9333ea"/></marker><marker id="native-8-arrow2" markerWidth="7" markerHeight="7" refX="6" refY="3" orient="auto" markerUnits="userSpaceOnUse"><path d="M0,0 L6,3 L0,6" fill="#059669"/></marker><marker id="native-8-arrow3" markerWidth="7" markerHeight="7" refX="6" refY="3" orient="auto" markerUnits="userSpaceOnUse"><path d="M0,0 L6,3 L0,6" fill="#d97706"/></marker><marker id="native-8-arrow4" markerWidth="7" markerHeight="7" refX="6" refY="3" orient="auto" markerUnits="userSpaceOnUse"><path d="M0,0 L6,3 L0,6" fill="#db2777"/></marker></defs><g><title>G1 · 980 × 509 · parent none</title><rect x="235" y="234.33333333333331" width="980" height="509" rx="6" fill="#f1f5f9" stroke="#94a3b8"/><text x="245" y="257.3333333333333" font-size="13">G1</text></g><g><title>G2 · 782 × 577 · parent none</title><rect x="1631" y="169.33333333333331" width="782" height="577" rx="6" fill="#f1f5f9" stroke="#94a3b8"/><text x="1641" y="192.33333333333331" font-size="13">G2</text></g><g><title>G3 · 417 × 293 · parent G1</title><rect x="259" y="426.3333333333333" width="417" height="293" rx="6" fill="#f1f5f9" stroke="#94a3b8"/><text x="269" y="449.3333333333333" font-size="13">G3</text></g><g><title>G4 · 467 × 333 · parent G2</title><rect x="1922" y="331.3333333333333" width="467" height="333" rx="6" fill="#f1f5f9" stroke="#94a3b8"/><text x="1932" y="354.3333333333333" font-size="13">G4</text></g><g><title>N1 · 92 × 53 · parent G1</title><rect x="929" y="426.3333333333333" width="92" height="53" rx="6" fill="#fff" stroke="#94a3b8"/><text x="939" y="449.3333333333333" font-size="13">N1</text></g><g><title>N2 · 118 × 92 · parent G2</title><rect x="1655" y="229.33333333333331" width="118" height="92" rx="6" fill="#fff" stroke="#94a3b8"/><text x="1665" y="252.33333333333331" font-size="13">N2</text></g><g><title>N3 · 101 × 65 · parent G3</title><rect x="289" y="630.3333333333333" width="101" height="65" rx="6" fill="#fff" stroke="#94a3b8"/><text x="299" y="653.3333333333333" font-size="13">N3</text></g><g><title>N4 · 83 × 77 · parent G4</title><rect x="2247" y="534.3333333333333" width="83" height="77" rx="6" fill="#fff" stroke="#94a3b8"/><text x="2257" y="557.3333333333333" font-size="13">N4</text></g><g><title>N5 · 145 × 88 · parent none</title><rect x="34" y="265.3333333333333" width="145" height="88" rx="6" fill="#fff" stroke="#94a3b8"/><text x="44" y="288.3333333333333" font-size="13">N5</text></g><g><title>N6 · 138 × 51 · parent G1</title><rect x="825" y="580.3333333333333" width="138" height="51" rx="6" fill="#fff" stroke="#94a3b8"/><text x="835" y="603.3333333333333" font-size="13">N6</text></g><g><title>N7 · 129 × 60 · parent G3</title><rect x="283" y="486.3333333333333" width="129" height="60" rx="6" fill="#fff" stroke="#94a3b8"/><text x="293" y="509.3333333333333" font-size="13">N7</text></g><g><title>N8 · 92 × 64 · parent G1</title><rect x="259" y="294.3333333333333" width="92" height="64" rx="6" fill="#fff" stroke="#94a3b8"/><text x="269" y="317.3333333333333" font-size="13">N8</text></g><g><title>N9 · 111 × 96 · parent G4</title><rect x="2096" y="397.3333333333333" width="111" height="96" rx="6" fill="#fff" stroke="#94a3b8"/><text x="2106" y="420.3333333333333" font-size="13">N9</text></g><g><title>N10 · 150 × 69 · parent G1</title><rect x="494" y="300.3333333333333" width="150" height="69" rx="6" fill="#fff" stroke="#94a3b8"/><text x="504" y="323.3333333333333" font-size="13">N10</text></g><g><title>N11 · 118 × 100 · parent none</title><rect x="1364" y="310.3333333333333" width="118" height="100" rx="6" fill="#fff" stroke="#94a3b8"/><text x="1374" y="333.3333333333333" font-size="13">N11</text></g><g><title>N12 · 113 × 50 · parent G3</title><rect x="539" y="637.8333333333333" width="113" height="50" rx="6" fill="#fff" stroke="#94a3b8"/><text x="549" y="660.8333333333333" font-size="13">N12</text></g><g><title>N13 · 153 × 80 · parent G4</title><rect x="1952" y="560.3333333333333" width="153" height="80" rx="6" fill="#fff" stroke="#94a3b8"/><text x="1962" y="583.3333333333333" font-size="13">N13</text></g><g><title>N14 · 124 × 56 · parent G4</title><rect x="1952" y="397.3333333333333" width="124" height="56" rx="6" fill="#fff" stroke="#94a3b8"/><text x="1962" y="420.3333333333333" font-size="13">N14</text></g><g><title>N15 · 114 × 98 · parent G1</title><rect x="1077" y="416.3333333333333" width="114" height="98" rx="6" fill="#fff" stroke="#94a3b8"/><text x="1087" y="439.3333333333333" font-size="13">N15</text></g><g><title>N16 · 85 × 54 · parent G1</title><rect x="377" y="300.3333333333333" width="85" height="54" rx="6" fill="#fff" stroke="#94a3b8"/><text x="387" y="323.3333333333333" font-size="13">N16</text></g><g><title>N17 · 132 × 80 · parent G4</title><rect x="2233" y="397.3333333333333" width="132" height="80" rx="6" fill="#fff" stroke="#94a3b8"/><text x="2243" y="420.3333333333333" font-size="13">N17</text></g><g><title>N18 · 141 × 76 · parent G1</title><rect x="732" y="447.3333333333333" width="141" height="76" rx="6" fill="#fff" stroke="#94a3b8"/><text x="742" y="470.3333333333333" font-size="13">N18</text></g><polyline points="1021,452.8333333333333 1069,452.8333333333333 1069,408.3333333333333 1356,408.3333333333333 1356,418.3333333333333 1717,418.3333333333333 1717,324.3333333333333" fill="none" stroke="#2563eb" stroke-width="1.8" marker-end="url(#native-8-arrow0)"><title>E1: N1 → N2:south</title></polyline><polyline points="975,294.3333333333333 975,319.3333333333333 909,319.3333333333333 909,452.8333333333333 929,452.8333333333333" fill="none" stroke="#9333ea" stroke-width="1.8" marker-end="url(#native-8-arrow1)"><title>E2: G1 → N1</title></polyline><polyline points="876,488.3333333333333 894,488.3333333333333 894,440.8333333333333 929,440.8333333333333" fill="none" stroke="#059669" stroke-width="1.8" marker-end="url(#native-8-arrow2)"><title>E3: N18:east → N1</title></polyline><polyline points="1717,324.3333333333333 1717,345.3333333333333 1821,345.3333333333333 1821,213.33333333333331 2421,213.33333333333331 2421,93 2443,93" fill="none" stroke="#d97706" stroke-width="1.8" ><title>E4: N2:south → N3:north</title></polyline><polyline points="2473,93 2474,93 2474,140 2443,140 2443,331.3333333333333 1866,331.3333333333333 1866,559.3333333333333 362.5,559.3333333333333 362.5,611.3333333333333 342.5,611.3333333333333 342.5,627.3333333333333" fill="none" stroke="#d97706" stroke-width="1.8" marker-end="url(#native-8-arrow3)"><title>E4: N2:south → N3:north</title></polyline><polyline points="393,665.8333333333333 420,665.8333333333333 420,609.3333333333333 507,609.3333333333333 507,470.3333333333333 700,470.3333333333333 700,435.3333333333333 909,435.3333333333333 909,464.8333333333333 929,464.8333333333333" fill="none" stroke="#db2777" stroke-width="1.8" marker-end="url(#native-8-arrow4)"><title>E5: N3:east → N1</title></polyline><polyline points="2330,572.8333333333333 2339,572.8333333333333 2339,617.6666666666666 2191,617.6666666666666" fill="none" stroke="#2563eb" stroke-width="1.8" ><title>E6: N4 → N4</title></polyline><polyline points="2161,617.6666666666666 2152,617.6666666666666 2152,543.3333333333333 2247,543.3333333333333 2247,525.3333333333333 2288.5,525.3333333333333 2288.5,534.3333333333333" fill="none" stroke="#2563eb" stroke-width="1.8" marker-end="url(#native-8-arrow0)"><title>E6: N4 → N4</title></polyline><polyline points="109.5,262.3333333333333 109.5,253.33333333333331 129,253.33333333333331 129,265.3333333333333 215,265.3333333333333 215,739.3333333333333 825,739.3333333333333 825,571.3333333333333 893,571.3333333333333 893,568.3333333333333 897,568.3333333333333 897,577.3333333333333" fill="none" stroke="#9333ea" stroke-width="1.8" marker-end="url(#native-8-arrow1)"><title>E7: N5:north → N6:north</title></polyline><polyline points="31,312.3333333333333 10,312.3333333333333 10,234.33333333333331 149,234.33333333333331" fill="none" stroke="#059669" stroke-width="1.8" ><title>E8: N5:west → N6:west</title></polyline><polyline points="179,234.33333333333331 203,234.33333333333331 203,727.3333333333333 777,727.3333333333333 777,608.8333333333333 822,608.8333333333333" fill="none" stroke="#059669" stroke-width="1.8" marker-end="url(#native-8-arrow2)"><title>E8: N5:west → N6:west</title></polyline><polyline points="283,593.3333333333333 332.5,593.3333333333333" fill="none" stroke="#d97706" stroke-width="1.8" ><title>E9: G3 → N7</title></polyline><polyline points="347.5,582.3333333333333 347.5,546.3333333333333 421,546.3333333333333 421,522.3333333333333 412,522.3333333333333" fill="none" stroke="#d97706" stroke-width="1.8" marker-end="url(#native-8-arrow3)"><title>E9: G3 → N7</title></polyline><polyline points="286,665.8333333333333 277,665.8333333333333 277,624.3333333333333 519,624.3333333333333 519,482.3333333333333 712,482.3333333333333 712,331.3333333333333 1335,331.3333333333333 1335,234.33333333333331 1344,234.33333333333331" fill="none" stroke="#db2777" stroke-width="1.8" ><title>E10: N3:west → N2</title></polyline><polyline points="1381,234.33333333333331 1417,234.33333333333331 1417,247.33333333333331 1437,247.33333333333331 1437,287.3333333333333 1518,287.3333333333333 1518,269.3333333333333 1646,269.3333333333333 1646,275.3333333333333 1655,275.3333333333333" fill="none" stroke="#db2777" stroke-width="1.8" marker-end="url(#native-8-arrow4)"><title>E10: N3:west → N2</title></polyline><polyline points="393,665.8333333333333 446,665.8333333333333" fill="none" stroke="#2563eb" stroke-width="1.8" ><title>E11: N3:east → N12:west</title></polyline><polyline points="483,665.8333333333333 536,665.8333333333333" fill="none" stroke="#2563eb" stroke-width="1.8" marker-end="url(#native-8-arrow0)"><title>E11: N3:east → N12:west</title></polyline><polyline points="644,334.8333333333333 700,334.8333333333333 700,278.3333333333333 1323,278.3333333333333 1323,215.33333333333331 1429,215.33333333333331 1429,235.33333333333331 1448,235.33333333333331 1448,256.3333333333333 1457,256.3333333333333" fill="none" stroke="#9333ea" stroke-width="1.8" ><title>E12: N10 → G4</title></polyline><polyline points="1494,256.3333333333333 1634,256.3333333333333 1634,491.8333333333333 1922,491.8333333333333" fill="none" stroke="#9333ea" stroke-width="1.8" marker-end="url(#native-8-arrow1)"><title>E12: N10 → G4</title></polyline><polyline points="676,560.8333333333333 685,560.8333333333333 685,531.3333333333333 921,531.3333333333333 921,343.3333333333333 1347,343.3333333333333 1347,278.3333333333333 1364,278.3333333333333" fill="none" stroke="#059669" stroke-width="1.8" ><title>E13: G3 → G2</title></polyline><polyline points="1401,278.3333333333333 1425,278.3333333333333 1425,302.3333333333333 1530,302.3333333333333 1530,457.8333333333333 1631,457.8333333333333" fill="none" stroke="#059669" stroke-width="1.8" marker-end="url(#native-8-arrow2)"><title>E13: G3 → G2</title></polyline><polyline points="1922,503.8333333333333 1913,503.8333333333333 1913,767 2443,767" fill="none" stroke="#d97706" stroke-width="1.8" ><title>E14: G4 → G3</title></polyline><polyline points="2480,767 2489,767 2489,779 697,779 697,572.8333333333333 676,572.8333333333333" fill="none" stroke="#d97706" stroke-width="1.8" marker-end="url(#native-8-arrow3)"><title>E14: G4 → G3</title></polyline><polyline points="2244,575.8333333333333 2235,575.8333333333333 2235,485.3333333333333 2487.5,485.3333333333333 2487.5,162" fill="none" stroke="#db2777" stroke-width="1.8" ><title>E15: N4:west → N8</title></polyline><polyline points="2469,151 1296,151 1296,266.3333333333333 1223,266.3333333333333 1223,292.3333333333333 360,292.3333333333333 360,326.3333333333333 351,326.3333333333333" fill="none" stroke="#db2777" stroke-width="1.8" marker-end="url(#native-8-arrow4)"><title>E15: N4:west → N8</title></polyline><polyline points="2031.5,557.3333333333333 2031.5,524.3333333333333 2154,524.3333333333333" fill="none" stroke="#2563eb" stroke-width="1.8" ><title>E16: N13:north → N4:north</title></polyline><polyline points="2191,531.3333333333333 2247,531.3333333333333 2247,522.3333333333333 2291.5,522.3333333333333 2291.5,531.3333333333333" fill="none" stroke="#2563eb" stroke-width="1.8" marker-end="url(#native-8-arrow0)"><title>E16: N13:north → N4:north</title></polyline><polyline points="462,333.3333333333333 486,333.3333333333333 486,377.3333333333333 909,377.3333333333333 909,319.3333333333333 1182,319.3333333333333 1182,327.3333333333333 1191,327.3333333333333" fill="none" stroke="#9333ea" stroke-width="1.8" marker-end="url(#native-8-arrow1)"><title>E17: N16 → G1</title></polyline><polyline points="926,455.8333333333333 897,455.8333333333333 897,307.3333333333333 1263,307.3333333333333 1263,319.3333333333333 1316,319.3333333333333 1316,281.3333333333333 1311,281.3333333333333 1311,203.33333333333331 1428,203.33333333333331 1428,212.33333333333331 1437,212.33333333333331" fill="none" stroke="#059669" stroke-width="1.8" ><title>E18: N1:west → N4:north</title></polyline><polyline points="1474,212.33333333333331 1623,212.33333333333331 1623,221.33333333333331 1809,221.33333333333331 1809,389.3333333333333 2223,389.3333333333333 2223,519.3333333333333 2291.5,519.3333333333333 2291.5,531.3333333333333" fill="none" stroke="#059669" stroke-width="1.8" marker-end="url(#native-8-arrow2)"><title>E18: N1:west → N4:north</title></polyline><polyline points="1426,307.3333333333333 1426,298.3333333333333 1436,298.3333333333333 1436,310.3333333333333 1482,310.3333333333333 1482,314.3333333333333 1518,314.3333333333333 1518,307.3333333333333 1538,307.3333333333333" fill="none" stroke="#d97706" stroke-width="1.8" ><title>E19: N11:north → N9:east</title></polyline><polyline points="1575,300.3333333333333 1647,300.3333333333333 1647,479.8333333333333 2096,479.8333333333333 2096,493.3333333333333 2211,493.3333333333333 2211,445.8333333333333 2219,445.8333333333333 2219,448.3333333333333 2210,448.3333333333333" fill="none" stroke="#d97706" stroke-width="1.8" marker-end="url(#native-8-arrow3)"><title>E19: N11:north → N9:east</title></polyline><polyline points="1949,428.3333333333333 1940,428.3333333333333 1940,375.3333333333333 2514,375.3333333333333 2514,46 2424,46 2424,35 2433,35" fill="none" stroke="#db2777" stroke-width="1.8" ><title>E20: N14:west → N16:south</title></polyline><polyline points="2470,35 2471,35 2471,24 1215,24 1215,300.3333333333333 462,300.3333333333333 462,358.3333333333333 422.5,358.3333333333333 422.5,357.3333333333333" fill="none" stroke="#db2777" stroke-width="1.8" marker-end="url(#native-8-arrow4)"><title>E20: N14:west → N16:south</title></polyline><polyline points="1655,711.3333333333333 2137,711.3333333333333" fill="none" stroke="#2563eb" stroke-width="1.8" ><title>E21: G2 → N4</title></polyline><polyline points="2155.5,700.3333333333333 2155.5,636.6666666666666 2226,636.6666666666666 2226,572.8333333333333 2247,572.8333333333333" fill="none" stroke="#2563eb" stroke-width="1.8" marker-end="url(#native-8-arrow0)"><title>E21: G2 → N4</title></polyline><polyline points="978,423.3333333333333 978,414.3333333333333 1042,414.3333333333333 1042,465.3333333333333 1077,465.3333333333333" fill="none" stroke="#9333ea" stroke-width="1.8" marker-end="url(#native-8-arrow1)"><title>E22: N1:north → N15</title></polyline><polyline points="1952,600.3333333333333 1943,600.3333333333333 1943,825 2433,825" fill="none" stroke="#059669" stroke-width="1.8" ><title>E23: N13 → N12:south</title></polyline><polyline points="2470,825 2479,825 2479,837 598.5,837 598.5,690.8333333333333" fill="none" stroke="#059669" stroke-width="1.8" marker-end="url(#native-8-arrow2)"><title>E23: N13 → N12:south</title></polyline><polyline points="676,584.8333333333333 723,584.8333333333333 723,570.3333333333333 732,570.3333333333333" fill="none" stroke="#d97706" stroke-width="1.8" ><title>E24: G3 → N6:north</title></polyline><polyline points="769,577.3333333333333 881,577.3333333333333 881,568.3333333333333 897,568.3333333333333 897,577.3333333333333" fill="none" stroke="#d97706" stroke-width="1.8" marker-end="url(#native-8-arrow3)"><title>E24: G3 → N6:north</title></polyline><polyline points="876,488.3333333333333 1069,488.3333333333333 1069,749.6666666666666 1271,749.6666666666666" fill="none" stroke="#db2777" stroke-width="1.8" ><title>E25: N18:east → N5:west</title></polyline><polyline points="1308,749.6666666666666 1309,749.6666666666666 1309,393.3333333333333 30,393.3333333333333 30,312.3333333333333 31,312.3333333333333" fill="none" stroke="#db2777" stroke-width="1.8" marker-end="url(#native-8-arrow4)"><title>E25: N18:east → N5:west</title></polyline><polyline points="462,321.3333333333333 471,321.3333333333333 471,278.3333333333333 227,278.3333333333333 227,169.33333333333331 1251,169.33333333333331" fill="none" stroke="#2563eb" stroke-width="1.8" ><title>E26: N16 → N2:south</title></polyline><polyline points="1288,169.33333333333331 1611,169.33333333333331 1611,244.33333333333331 1655,244.33333333333331 1655,321.3333333333333 1705,321.3333333333333 1705,333.3333333333333 1717,333.3333333333333 1717,324.3333333333333" fill="none" stroke="#2563eb" stroke-width="1.8" marker-end="url(#native-8-arrow0)"><title>E26: N16 → N2:south</title></polyline><polyline points="1717,324.3333333333333 1717,333.3333333333333 1797,333.3333333333333 1797,324.3333333333333 1829,324.3333333333333" fill="none" stroke="#9333ea" stroke-width="1.8" ><title>E27: N2:south → N9:north</title></polyline><polyline points="1866,331.3333333333333 1878,331.3333333333333 1878,461.3333333333333 2096,461.3333333333333 2096,397.3333333333333 2146,397.3333333333333 2146,385.3333333333333 2154.5,385.3333333333333 2154.5,394.3333333333333" fill="none" stroke="#9333ea" stroke-width="1.8" marker-end="url(#native-8-arrow1)"><title>E27: N2:south → N9:north</title></polyline><polyline points="412,510.33333333333326 732,510.33333333333326 732,447.3333333333333 885,447.3333333333333 885,488.3333333333333 876,488.3333333333333" fill="none" stroke="#059669" stroke-width="1.8" marker-end="url(#native-8-arrow2)"><title>E28: N7 → N18:east</title></polyline><polyline points="390,662.8333333333333 422,662.8333333333333 422,547.3333333333333 1251,547.3333333333333 1251,300.3333333333333 1271,300.3333333333333" fill="none" stroke="#d97706" stroke-width="1.8" ><title>E29: N3 → N11:north</title></polyline><polyline points="1308,307.3333333333333 1401,307.3333333333333 1401,306.3333333333333 1426,306.3333333333333 1426,307.3333333333333" fill="none" stroke="#d97706" stroke-width="1.8" marker-end="url(#native-8-arrow3)"><title>E29: N3 → N11:north</title></polyline><rect x="2443" y="82" width="30" height="22" rx="4" fill="#fff" stroke="#cbd5e1"/><text x="2451" y="97" font-size="11">E4</text><rect x="2161" y="606.6666666666666" width="30" height="22" rx="4" fill="#fff" stroke="#cbd5e1"/><text x="2169" y="621.6666666666666" font-size="11">E6</text><rect x="149" y="223.33333333333331" width="30" height="22" rx="4" fill="#fff" stroke="#cbd5e1"/><text x="157" y="238.33333333333331" font-size="11">E8</text><rect x="332.5" y="582.3333333333333" width="30" height="22" rx="4" fill="#fff" stroke="#cbd5e1"/><text x="340.5" y="597.3333333333333" font-size="11">E9</text><rect x="1344" y="223.33333333333331" width="37" height="22" rx="4" fill="#fff" stroke="#cbd5e1"/><text x="1352" y="238.33333333333331" font-size="11">E10</text><rect x="446" y="654.8333333333333" width="37" height="22" rx="4" fill="#fff" stroke="#cbd5e1"/><text x="454" y="669.8333333333333" font-size="11">E11</text><rect x="1457" y="245.33333333333331" width="37" height="22" rx="4" fill="#fff" stroke="#cbd5e1"/><text x="1465" y="260.3333333333333" font-size="11">E12</text><rect x="1364" y="267.3333333333333" width="37" height="22" rx="4" fill="#fff" stroke="#cbd5e1"/><text x="1372" y="282.3333333333333" font-size="11">E13</text><rect x="2443" y="756" width="37" height="22" rx="4" fill="#fff" stroke="#cbd5e1"/><text x="2451" y="771" font-size="11">E14</text><rect x="2469" y="140" width="37" height="22" rx="4" fill="#fff" stroke="#cbd5e1"/><text x="2477" y="155" font-size="11">E15</text><rect x="2154" y="513.3333333333333" width="37" height="22" rx="4" fill="#fff" stroke="#cbd5e1"/><text x="2162" y="528.3333333333333" font-size="11">E16</text><rect x="1437" y="201.33333333333331" width="37" height="22" rx="4" fill="#fff" stroke="#cbd5e1"/><text x="1445" y="216.33333333333331" font-size="11">E18</text><rect x="1538" y="289.3333333333333" width="37" height="22" rx="4" fill="#fff" stroke="#cbd5e1"/><text x="1546" y="304.3333333333333" font-size="11">E19</text><rect x="2433" y="24" width="37" height="22" rx="4" fill="#fff" stroke="#cbd5e1"/><text x="2441" y="39" font-size="11">E20</text><rect x="2137" y="700.3333333333333" width="37" height="22" rx="4" fill="#fff" stroke="#cbd5e1"/><text x="2145" y="715.3333333333333" font-size="11">E21</text><rect x="2433" y="814" width="37" height="22" rx="4" fill="#fff" stroke="#cbd5e1"/><text x="2441" y="829" font-size="11">E23</text><rect x="732" y="559.3333333333333" width="37" height="22" rx="4" fill="#fff" stroke="#cbd5e1"/><text x="740" y="574.3333333333333" font-size="11">E24</text><rect x="1271" y="738.6666666666666" width="37" height="22" rx="4" fill="#fff" stroke="#cbd5e1"/><text x="1279" y="753.6666666666666" font-size="11">E25</text><rect x="1251" y="158.33333333333331" width="37" height="22" rx="4" fill="#fff" stroke="#cbd5e1"/><text x="1259" y="173.33333333333331" font-size="11">E26</text><rect x="1829" y="320.3333333333333" width="37" height="22" rx="4" fill="#fff" stroke="#cbd5e1"/><text x="1837" y="335.3333333333333" font-size="11">E27</text><rect x="1271" y="289.3333333333333" width="37" height="22" rx="4" fill="#fff" stroke="#cbd5e1"/><text x="1279" y="304.3333333333333" font-size="11">E29</text><circle cx="926" cy="455.8333333333333" r="3.5" fill="#0f172a"><title>N1:west</title></circle><circle cx="1024" cy="455.8333333333333" r="3.5" fill="#0f172a"><title>N1:east</title></circle><circle cx="978" cy="423.3333333333333" r="3.5" fill="#0f172a"><title>N1:north</title></circle><circle cx="1652" cy="278.3333333333333" r="3.5" fill="#0f172a"><title>N2:west</title></circle><circle cx="1717" cy="324.3333333333333" r="3.5" fill="#0f172a"><title>N2:south</title></circle><circle cx="286" cy="665.8333333333333" r="3.5" fill="#0f172a"><title>N3:west</title></circle><circle cx="393" cy="665.8333333333333" r="3.5" fill="#0f172a"><title>N3:east</title></circle><circle cx="342.5" cy="627.3333333333333" r="3.5" fill="#0f172a"><title>N3:north</title></circle><circle cx="2244" cy="575.8333333333333" r="3.5" fill="#0f172a"><title>N4:west</title></circle><circle cx="2291.5" cy="531.3333333333333" r="3.5" fill="#0f172a"><title>N4:north</title></circle><circle cx="31" cy="312.3333333333333" r="3.5" fill="#0f172a"><title>N5:west</title></circle><circle cx="109.5" cy="262.3333333333333" r="3.5" fill="#0f172a"><title>N5:north</title></circle><circle cx="822" cy="608.8333333333333" r="3.5" fill="#0f172a"><title>N6:west</title></circle><circle cx="897" cy="577.3333333333333" r="3.5" fill="#0f172a"><title>N6:north</title></circle><circle cx="308" cy="361.3333333333333" r="3.5" fill="#0f172a"><title>N8:south</title></circle><circle cx="2210" cy="448.3333333333333" r="3.5" fill="#0f172a"><title>N9:east</title></circle><circle cx="2154.5" cy="394.3333333333333" r="3.5" fill="#0f172a"><title>N9:north</title></circle><circle cx="491" cy="337.8333333333333" r="3.5" fill="#0f172a"><title>N10:west</title></circle><circle cx="647" cy="337.8333333333333" r="3.5" fill="#0f172a"><title>N10:east</title></circle><circle cx="572" cy="297.3333333333333" r="3.5" fill="#0f172a"><title>N10:north</title></circle><circle cx="1426" cy="307.3333333333333" r="3.5" fill="#0f172a"><title>N11:north</title></circle><circle cx="536" cy="665.8333333333333" r="3.5" fill="#0f172a"><title>N12:west</title></circle><circle cx="598.5" cy="690.8333333333333" r="3.5" fill="#0f172a"><title>N12:south</title></circle><circle cx="1949" cy="603.3333333333333" r="3.5" fill="#0f172a"><title>N13:west</title></circle><circle cx="2031.5" cy="557.3333333333333" r="3.5" fill="#0f172a"><title>N13:north</title></circle><circle cx="2031.5" cy="643.3333333333333" r="3.5" fill="#0f172a"><title>N13:south</title></circle><circle cx="1949" cy="428.3333333333333" r="3.5" fill="#0f172a"><title>N14:west</title></circle><circle cx="2017" cy="394.3333333333333" r="3.5" fill="#0f172a"><title>N14:north</title></circle><circle cx="1074" cy="468.3333333333333" r="3.5" fill="#0f172a"><title>N15:west</title></circle><circle cx="1194" cy="468.3333333333333" r="3.5" fill="#0f172a"><title>N15:east</title></circle><circle cx="1137" cy="517.3333333333333" r="3.5" fill="#0f172a"><title>N15:south</title></circle><circle cx="374" cy="330.3333333333333" r="3.5" fill="#0f172a"><title>N16:west</title></circle><circle cx="465" cy="330.3333333333333" r="3.5" fill="#0f172a"><title>N16:east</title></circle><circle cx="422.5" cy="297.3333333333333" r="3.5" fill="#0f172a"><title>N16:north</title></circle><circle cx="422.5" cy="357.3333333333333" r="3.5" fill="#0f172a"><title>N16:south</title></circle><circle cx="2302" cy="394.3333333333333" r="3.5" fill="#0f172a"><title>N17:north</title></circle><circle cx="2302" cy="480.3333333333333" r="3.5" fill="#0f172a"><title>N17:south</title></circle><circle cx="876" cy="488.3333333333333" r="3.5" fill="#0f172a"><title>N18:east</title></circle></svg>