<svg xmlns="http://www.w3.org/2000/svg" viewBox="-24 -24 3779 1979" role="img" aria-label="Stately native" style="font-family:system-ui;background:white"><defs><marker id="native-10-arrow0" markerWidth="7" markerHeight="7" refX="6" refY="3" orient="auto" markerUnits="userSpaceOnUse"><path d="M0,0 L6,3 L0,6" fill="#2563eb"/></marker><marker id="native-10-arrow1" markerWidth="7" markerHeight="7" refX="6" refY="3" orient="auto" markerUnits="userSpaceOnUse"><path d="M0,0 L6,3 L0,6" fill="#9333ea"/></marker><marker id="native-10-arrow2" markerWidth="7" markerHeight="7" refX="6" refY="3" orient="auto" markerUnits="userSpaceOnUse"><path d="M0,0 L6,3 L0,6" fill="#059669"/></marker><marker id="native-10-arrow3" markerWidth="7" markerHeight="7" refX="6" refY="3" orient="auto" markerUnits="userSpaceOnUse"><path d="M0,0 L6,3 L0,6" fill="#d97706"/></marker><marker id="native-10-arrow4" markerWidth="7" markerHeight="7" refX="6" refY="3" orient="auto" markerUnits="userSpaceOnUse"><path d="M0,0 L6,3 L0,6" fill="#db2777"/></marker></defs><g><title>G1 · 1312 × 876.3333333333333 · parent none</title><rect x="2011" y="469.3333333333333" width="1312" height="876.3333333333333" rx="6" fill="#f1f5f9" stroke="#94a3b8"/><text x="2021" y="492.3333333333333" font-size="13">G1</text></g><g><title>G2 · 1750 × 875 · parent none</title><rect x="24" y="213.33333333333331" width="1750" height="875" rx="6" fill="#f1f5f9" stroke="#94a3b8"/><text x="34" y="236.33333333333331" font-size="13">G2</text></g><g><title>G3 · 881 × 635 · parent G1</title><rect x="2092" y="686.6666666666666" width="881" height="635" rx="6" fill="#f1f5f9" stroke="#94a3b8"/><text x="2102" y="709.6666666666666" font-size="13">G3</text></g><g><title>G4 · 1222 × 643 · parent G2</title><rect x="528" y="273.3333333333333" width="1222" height="643" rx="6" fill="#f1f5f9" stroke="#94a3b8"/><text x="538" y="296.3333333333333" font-size="13">G4</text></g><g><title>G5 · 296 × 394 · parent G3</title><rect x="2116" y="903.6666666666666" width="296" height="394" rx="6" fill="#f1f5f9" stroke="#94a3b8"/><text x="2126" y="926.6666666666666" font-size="13">G5</text></g><g><title>G6 · 772 × 417 · parent G4</title><rect x="954" y="475.3333333333333" width="772" height="417" rx="6" fill="#f1f5f9" stroke="#94a3b8"/><text x="964" y="498.3333333333333" font-size="13">G6</text></g><g><title>N1 · 91 × 55 · parent G1</title><rect x="3115" y="802.6666666666666" width="91" height="55" rx="6" fill="#fff" stroke="#94a3b8"/><text x="3125" y="825.6666666666666" font-size="13">N1</text></g><g><title>N2 · 100 × 83 · parent G2</title><rect x="54" y="279.3333333333333" width="100" height="83" rx="6" fill="#fff" stroke="#94a3b8"/><text x="64" y="302.3333333333333" font-size="13">N2</text></g><g><title>N3 · 139 × 82 · parent G3</title><rect x="2468" y="903.6666666666666" width="139" height="82" rx="6" fill="#fff" stroke="#94a3b8"/><text x="2478" y="926.6666666666666" font-size="13">N3</text></g><g><title>N4 · 109 × 95 · parent G4</title><rect x="638" y="343.3333333333333" width="109" height="95" rx="6" fill="#fff" stroke="#94a3b8"/><text x="648" y="366.3333333333333" font-size="13">N4</text></g><g><title>N5 · 91 × 54 · parent G5</title><rect x="2146" y="963.6666666666666" width="91" height="54" rx="6" fill="#fff" stroke="#94a3b8"/><text x="2156" y="986.6666666666666" font-size="13">N5</text></g><g><title>N6 · 116 × 92 · parent G6</title><rect x="1284" y="541.3333333333333" width="116" height="92" rx="6" fill="#fff" stroke="#94a3b8"/><text x="1294" y="564.3333333333333" font-size="13">N6</text></g><g><title>N7 · 122 × 59 · parent G6</title><rect x="1580" y="722.3333333333333" width="122" height="59" rx="6" fill="#fff" stroke="#94a3b8"/><text x="1590" y="745.3333333333333" font-size="13">N7</text></g><g><title>N8 · 155 × 73 · parent G5</title><rect x="2140" y="1084.6666666666665" width="155" height="73" rx="6" fill="#fff" stroke="#94a3b8"/><text x="2150" y="1107.6666666666665" font-size="13">N8</text></g><g><title>N9 · 148 × 84 · parent G2</title><rect x="324" y="414.3333333333333" width="148" height="84" rx="6" fill="#fff" stroke="#94a3b8"/><text x="334" y="437.3333333333333" font-size="13">N9</text></g><g><title>N10 · 150 × 91 · parent G3</title><rect x="2652" y="746.6666666666666" width="150" height="91" rx="6" fill="#fff" stroke="#94a3b8"/><text x="2662" y="769.6666666666666" font-size="13">N10</text></g><g><title>N11 · 160 × 82 · parent G1</title><rect x="3122" y="951.6666666666666" width="160" height="82" rx="6" fill="#fff" stroke="#94a3b8"/><text x="3132" y="974.6666666666666" font-size="13">N11</text></g><g><title>N12 · 99 × 92 · parent G1</title><rect x="2897" y="558.6666666666666" width="99" height="92" rx="6" fill="#fff" stroke="#94a3b8"/><text x="2907" y="581.6666666666666" font-size="13">N12</text></g><g><title>N13 · 143 × 48 · parent G6</title><rect x="1324" y="820.3333333333333" width="143" height="48" rx="6" fill="#fff" stroke="#94a3b8"/><text x="1334" y="843.3333333333333" font-size="13">N13</text></g><g><title>N14 · 125 × 89 · parent G5</title><rect x="2263" y="963.6666666666666" width="125" height="89" rx="6" fill="#fff" stroke="#94a3b8"/><text x="2273" y="986.6666666666666" font-size="13">N14</text></g><g><title>N15 · 144 × 52 · parent G6</title><rect x="1287" y="732.3333333333333" width="144" height="52" rx="6" fill="#fff" stroke="#94a3b8"/><text x="1297" y="755.3333333333333" font-size="13">N15</text></g><g><title>N16 · 146 × 75 · parent none</title><rect x="1628" y="1124.3333333333333" width="146" height="75" rx="6" fill="#fff" stroke="#94a3b8"/><text x="1638" y="1147.3333333333333" font-size="13">N16</text></g><g><title>N17 · 122 × 87 · parent G6</title><rect x="984" y="535.3333333333333" width="122" height="87" rx="6" fill="#fff" stroke="#94a3b8"/><text x="994" y="558.3333333333333" font-size="13">N17</text></g><g><title>N18 · 160 × 49 · parent G4</title><rect x="645" y="475.3333333333333" width="160" height="49" rx="6" fill="#fff" stroke="#94a3b8"/><text x="655" y="498.3333333333333" font-size="13">N18</text></g><g><title>N19 · 112 × 92 · parent G2</title><rect x="186" y="273.3333333333333" width="112" height="92" rx="6" fill="#fff" stroke="#94a3b8"/><text x="196" y="296.3333333333333" font-size="13">N19</text></g><g><title>N20 · 147 × 55 · parent G3</title><rect x="2122" y="752.6666666666666" width="147" height="55" rx="6" fill="#fff" stroke="#94a3b8"/><text x="2132" y="775.6666666666666" font-size="13">N20</text></g><g><title>N21 · 156 × 56 · parent none</title><rect x="1618" y="121.33333333333333" width="156" height="56" rx="6" fill="#fff" stroke="#94a3b8"/><text x="1628" y="144.33333333333331" font-size="13">N21</text></g><g><title>N22 · 81 × 93 · parent none</title><rect x="1874" y="661.3333333333333" width="81" height="93" rx="6" fill="#fff" stroke="#94a3b8"/><text x="1884" y="684.3333333333333" font-size="13">N22</text></g><g><title>N23 · 141 × 54 · parent G3</title><rect x="2295" y="752.6666666666666" width="141" height="54" rx="6" fill="#fff" stroke="#94a3b8"/><text x="2305" y="775.6666666666666" font-size="13">N23</text></g><g><title>N24 · 114 × 50 · parent G6</title><rect x="1138" y="602.3333333333333" width="114" height="50" rx="6" fill="#fff" stroke="#94a3b8"/><text x="1148" y="625.3333333333333" font-size="13">N24</text></g><g><title>N25 · 157 × 90 · parent G5</title><rect x="2146" y="1183.6666666666665" width="157" height="90" rx="6" fill="#fff" stroke="#94a3b8"/><text x="2156" y="1206.6666666666665" font-size="13">N25</text></g><g><title>N26 · 160 × 94 · parent G6</title><rect x="978" y="732.3333333333333" width="160" height="94" rx="6" fill="#fff" stroke="#94a3b8"/><text x="988" y="755.3333333333333" font-size="13">N26</text></g><g><title>N27 · 117 × 51 · parent G6</title><rect x="1138" y="541.3333333333333" width="117" height="51" rx="6" fill="#fff" stroke="#94a3b8"/><text x="1148" y="564.3333333333333" font-size="13">N27</text></g><g><title>N28 · 119 × 98 · parent G1</title><rect x="3145" y="558.6666666666666" width="119" height="98" rx="6" fill="#fff" stroke="#94a3b8"/><text x="3155" y="581.6666666666666" font-size="13">N28</text></g><g><title>N29 · 158 × 94 · parent G3</title><rect x="2462" y="752.6666666666666" width="158" height="94" rx="6" fill="#fff" stroke="#94a3b8"/><text x="2472" y="775.6666666666666" font-size="13">N29</text></g><g><title>N30 · 91 × 75 · parent G3</title><rect x="2858" y="756.6666666666666" width="91" height="75" rx="6" fill="#fff" stroke="#94a3b8"/><text x="2868" y="779.6666666666666" font-size="13">N30</text></g><g><title>N31 · 96 × 49 · parent G1</title><rect x="3029" y="696.6666666666666" width="96" height="49" rx="6" fill="#fff" stroke="#94a3b8"/><text x="3039" y="719.6666666666666" font-size="13">N31</text></g><g><title>N32 · 83 × 69 · parent G2</title><rect x="389" y="273.3333333333333" width="83" height="69" rx="6" fill="#fff" stroke="#94a3b8"/><text x="399" y="296.3333333333333" font-size="13">N32</text></g><polyline points="3163.5,860.6666666666666 3163.5,869.6666666666666 3394,869.6666666666666 3394,484" fill="none" stroke="#2563eb" stroke-width="1.8" ><title>E1: N1:south → N2</title></polyline><polyline points="3379,473 3331,473 3331,265.3333333333333 163,265.3333333333333 163,320.8333333333333 154,320.8333333333333" fill="none" stroke="#2563eb" stroke-width="1.8" marker-end="url(#native-10-arrow0)"><title>E1: N1:south → N2</title></polyline><polyline points="3299,904.6666666666666 3175.5,904.6666666666666" fill="none" stroke="#9333ea" stroke-width="1.8" ><title>E2: G1 → N1:east</title></polyline><polyline points="3160.5,893.6666666666666 3160.5,857.6666666666666 3218,857.6666666666666 3218,833.1666666666666 3209,833.1666666666666" fill="none" stroke="#9333ea" stroke-width="1.8" marker-end="url(#native-10-arrow1)"><title>E2: G1 → N1:east</title></polyline><polyline points="472,313.8333333333333 520,313.8333333333333 520,924.3333333333333 1790,924.3333333333333 1790,579.3333333333333 1879,579.3333333333333 1879,467.3333333333333 1856,467.3333333333333 1856,405.3333333333333 1884,405.3333333333333" fill="none" stroke="#059669" stroke-width="1.8" ><title>E3: N32 → N1:north</title></polyline><polyline points="1914,405.3333333333333 1987,405.3333333333333 1987,670.6666666666666 3163.5,670.6666666666666 3163.5,799.6666666666666" fill="none" stroke="#059669" stroke-width="1.8" marker-end="url(#native-10-arrow2)"><title>E3: N32 → N1:north</title></polyline><polyline points="107,365.3333333333333 107,936.3333333333333 1758,936.3333333333333 1758,468.3333333333333 1844,468.3333333333333 1844,448.3333333333333 1864,448.3333333333333" fill="none" stroke="#d97706" stroke-width="1.8" ><title>E4: N2:south → N3</title></polyline><polyline points="1894,448.3333333333333 2011,448.3333333333333 2011,849.6666666666666 2467,849.6666666666666 2467,938.6666666666666 2468,938.6666666666666" fill="none" stroke="#d97706" stroke-width="1.8" marker-end="url(#native-10-arrow3)"><title>E4: N2:south → N3</title></polyline><polyline points="2607,944.6666666666666 2628,944.6666666666666 2628,861.6666666666666 2997,861.6666666666666 2997,792.6666666666666 3029,792.6666666666666" fill="none" stroke="#db2777" stroke-width="1.8" ><title>E5: N3 → N1:north</title></polyline><polyline points="3059,799.6666666666666 3151.5,799.6666666666666 3151.5,790.6666666666666 3163.5,790.6666666666666 3163.5,799.6666666666666" fill="none" stroke="#db2777" stroke-width="1.8" marker-end="url(#native-10-arrow4)"><title>E5: N3 → N1:north</title></polyline><polyline points="695.5,340.3333333333333 695.5,331.3333333333333 591,331.3333333333333 591,390.16666666666663 582,390.16666666666663" fill="none" stroke="#2563eb" stroke-width="1.8" ><title>E6: N4:north → N4:west</title></polyline><polyline points="552,390.16666666666663 543,390.16666666666663 543,402.16666666666663 603,402.16666666666663 603,393.8333333333333 635,393.8333333333333" fill="none" stroke="#2563eb" stroke-width="1.8" marker-end="url(#native-10-arrow0)"><title>E6: N4:north → N4:west</title></polyline><polyline points="2143,993.6666666666666 2120,993.6666666666666 2120,1373.9999999999998 3373,1373.9999999999998" fill="none" stroke="#9333ea" stroke-width="1.8" ><title>E7: N5:west → N6</title></polyline><polyline points="3403,1373.9999999999998 3408,1373.9999999999998 3408,656.6666666666666 1671,656.6666666666666 1671,581.3333333333333 1400,581.3333333333333" fill="none" stroke="#9333ea" stroke-width="1.8" marker-end="url(#native-10-arrow1)"><title>E7: N5:west → N6</title></polyline><polyline points="2143,993.6666666666666 2146,993.6666666666666 2146,939.6666666666666 2450,939.6666666666666 2450,745.6666666666666 3323,745.6666666666666 3323,93 3353,93" fill="none" stroke="#059669" stroke-width="1.8" ><title>E8: N5:west → N6</title></polyline><polyline points="3383,93 3384,93 3384,78 1786,78 1786,593.3333333333333 1400,593.3333333333333" fill="none" stroke="#059669" stroke-width="1.8" marker-end="url(#native-10-arrow2)"><title>E8: N5:west → N6</title></polyline><polyline points="1362,729.3333333333333 1362,675.3333333333333 1830,675.3333333333333 1830,246.33333333333331 1931,246.33333333333331" fill="none" stroke="#d97706" stroke-width="1.8" ><title>E9: N15:north → N11:north</title></polyline><polyline points="1961,246.33333333333331 2011,246.33333333333331 2011,674.6666666666666 2975,674.6666666666666 2975,916.6666666666666 3205,916.6666666666666 3205,948.6666666666666" fill="none" stroke="#d97706" stroke-width="1.8" marker-end="url(#native-10-arrow3)"><title>E9: N15:north → N11:north</title></polyline><polyline points="1774,1155.8333333333333 1821,1155.8333333333333 1821,1124.3333333333333 1830,1124.3333333333333" fill="none" stroke="#db2777" stroke-width="1.8" ><title>E10: N16 → N12</title></polyline><polyline points="1867,1124.3333333333333 2084,1124.3333333333333 2084,610.6666666666666 2897,610.6666666666666" fill="none" stroke="#db2777" stroke-width="1.8" marker-end="url(#native-10-arrow4)"><title>E10: N16 → N12</title></polyline><polyline points="805,482.68333333333334 853,482.68333333333334 853,456.3333333333333 1826,456.3333333333333 1826,521.3333333333333 3044,521.3333333333333 3044,678.6666666666666 3080,678.6666666666666 3080,693.6666666666666" fill="none" stroke="#2563eb" stroke-width="1.8" marker-end="url(#native-10-arrow0)"><title>E11: N18 → N31:north</title></polyline><polyline points="3128,724.1666666666666 3137,724.1666666666666 3137,656.6666666666666 3136,656.6666666666666 3136,613.6666666666666 3145,613.6666666666666" fill="none" stroke="#9333ea" stroke-width="1.8" marker-end="url(#native-10-arrow1)"><title>E12: N31:east → N28</title></polyline><polyline points="747,390.8333333333333 1814,390.8333333333333 1814,598.6666666666666 2897,598.6666666666666" fill="none" stroke="#059669" stroke-width="1.8" marker-end="url(#native-10-arrow2)"><title>E13: N4 → N12</title></polyline><polyline points="1362,729.3333333333333 1362,703.3333333333333 1866,703.3333333333333 1866,780.1666666666666 2122,780.1666666666666" fill="none" stroke="#d97706" stroke-width="1.8" marker-end="url(#native-10-arrow3)"><title>E14: N15:north → N20</title></polyline><polyline points="1914.5,754.3333333333333 1914.5,1231.6666666666665 2143,1231.6666666666665" fill="none" stroke="#db2777" stroke-width="1.8" marker-end="url(#native-10-arrow4)"><title>E15: N22 → N25:west</title></polyline><polyline points="1199.5,538.3333333333333 1199.5,519.3333333333333 1802,519.3333333333333 1802,362.3333333333333 1904,362.3333333333333" fill="none" stroke="#2563eb" stroke-width="1.8" ><title>E16: N27:north → N25:north</title></polyline><polyline points="1922.5,373.3333333333333 1922.5,622.6666666666666 2072,622.6666666666666 2072,1171.6666666666665 2227.5,1171.6666666666665 2227.5,1180.6666666666665" fill="none" stroke="#2563eb" stroke-width="1.8" marker-end="url(#native-10-arrow0)"><title>E16: N27:north → N25:north</title></polyline><polyline points="3163.5,799.6666666666666 3163.5,790.6666666666666 3206,790.6666666666666 3206,799.6666666666666 3262,799.6666666666666" fill="none" stroke="#9333ea" stroke-width="1.8" ><title>E17: N1:north → G3</title></polyline><polyline points="3299,796.3333333333333 3308,796.3333333333333 3308,857.6666666666666 3021,857.6666666666666 3021,1004.1666666666666 2973,1004.1666666666666" fill="none" stroke="#9333ea" stroke-width="1.8" marker-end="url(#native-10-arrow1)"><title>E17: N1:north → G3</title></polyline><polyline points="2607,956.6666666666666 3029,956.6666666666666" fill="none" stroke="#059669" stroke-width="1.8" ><title>E18: N3 → N11</title></polyline><polyline points="3066,951.6666666666666 3113,951.6666666666666 3113,992.6666666666666 3122,992.6666666666666" fill="none" stroke="#059669" stroke-width="1.8" marker-end="url(#native-10-arrow2)"><title>E18: N3 → N11</title></polyline><polyline points="2295,779.6666666666666 2286,779.6666666666666 2286,895.6666666666666 2460,895.6666666666666 2460,1431.9999999999998 3353,1431.9999999999998" fill="none" stroke="#d97706" stroke-width="1.8" ><title>E19: N23 → N18</title></polyline><polyline points="3390,1431.9999999999998 3399,1431.9999999999998 3399,1443.9999999999998 814,1443.9999999999998 814,516.9833333333333 805,516.9833333333333" fill="none" stroke="#d97706" stroke-width="1.8" marker-end="url(#native-10-arrow3)"><title>E19: N23 → N18</title></polyline><polyline points="1774,1167.8333333333333 1809,1167.8333333333333 1809,1182.3333333333333 1830,1182.3333333333333" fill="none" stroke="#db2777" stroke-width="1.8" ><title>E20: N16 → N8:north</title></polyline><polyline points="1867,1182.3333333333333 2060,1182.3333333333333 2060,1136.3333333333333 2140,1136.3333333333333 2140,1072.6666666666665 2220.5,1072.6666666666665 2220.5,1081.6666666666665" fill="none" stroke="#db2777" stroke-width="1.8" marker-end="url(#native-10-arrow4)"><title>E20: N16 → N8:north</title></polyline><polyline points="2996,604.6666666666666 3032,604.6666666666666 3032,558.6666666666666 3052,558.6666666666666" fill="none" stroke="#2563eb" stroke-width="1.8" ><title>E21: N12 → N28</title></polyline><polyline points="3089,558.6666666666666 3098,558.6666666666666 3098,589.6666666666666 3145,589.6666666666666" fill="none" stroke="#2563eb" stroke-width="1.8" marker-end="url(#native-10-arrow0)"><title>E21: N12 → N28</title></polyline><polyline points="1750,588.8333333333333 1802,588.8333333333333 1802,653.3333333333333 2889,653.3333333333333 2889,658.6666666666666 3133,658.6666666666666 3133,610.6666666666666 3142,610.6666666666666" fill="none" stroke="#9333ea" stroke-width="1.8" marker-end="url(#native-10-arrow1)"><title>E22: G4 → N28:west</title></polyline><polyline points="1342,633.3333333333333 1342,669.3333333333333" fill="none" stroke="#059669" stroke-width="1.8" ><title>E23: N6 → G6</title></polyline><polyline points="1342,691.3333333333333 1342,692.3333333333333 1284,692.3333333333333 1284,536.3333333333333 1342,536.3333333333333 1342,535.3333333333333" fill="none" stroke="#059669" stroke-width="1.8" marker-end="url(#native-10-arrow2)"><title>E23: N6 → G6</title></polyline><polyline points="2303,1228.6666666666665 2448,1228.6666666666665 2448,950.6666666666666 2468,950.6666666666666" fill="none" stroke="#d97706" stroke-width="1.8" marker-end="url(#native-10-arrow3)"><title>E24: N25 → N3</title></polyline><polyline points="1750,600.8333333333333 1814,600.8333333333333 1814,641.3333333333333 2877,641.3333333333333 2877,678.6666666666666 3021,678.6666666666666 3021,773.6666666666666 3163.5,773.6666666666666 3163.5,799.6666666666666" fill="none" stroke="#db2777" stroke-width="1.8" marker-end="url(#native-10-arrow4)"><title>E25: G4 → N1:north</title></polyline><polyline points="2607,932.6666666666666 3009,932.6666666666666 3009,690.6666666666666 3074,690.6666666666666 3074,684.6666666666666 3080,684.6666666666666 3080,693.6666666666666" fill="none" stroke="#2563eb" stroke-width="1.8" marker-end="url(#native-10-arrow0)"><title>E26: N3 → N31:north</title></polyline><polyline points="1726,677.8333333333333 1738,677.8333333333333 1738,533.3333333333333 1852.5,533.3333333333333 1852.5,513.3333333333333" fill="none" stroke="#9333ea" stroke-width="1.8" ><title>E27: G6 → N14:east</title></polyline><polyline points="1871,502.3333333333333 2003,502.3333333333333 2003,955.6666666666666 2400,955.6666666666666 2400,1011.1666666666666 2391,1011.1666666666666" fill="none" stroke="#9333ea" stroke-width="1.8" marker-end="url(#native-10-arrow1)"><title>E27: G6 → N14:east</title></polyline><polyline points="48,963.3333333333333 1120.5,963.3333333333333" fill="none" stroke="#059669" stroke-width="1.8" ><title>E28: G2 → N17:east</title></polyline><polyline points="1139,952.3333333333333 1139,834.3333333333333 1146,834.3333333333333 1146,660.3333333333333 1120.5,660.3333333333333 1120.5,581.8333333333333 1109,581.8333333333333" fill="none" stroke="#059669" stroke-width="1.8" marker-end="url(#native-10-arrow2)"><title>E28: G2 → N17:east</title></polyline><polyline points="1255,630.3333333333333 1272,630.3333333333333 1272,641.3333333333333 1726,641.3333333333333 1726,560.3333333333333 1830,560.3333333333333" fill="none" stroke="#d97706" stroke-width="1.8" ><title>E29: N24:east → N28</title></polyline><polyline points="1867,560.3333333333333 2889,560.3333333333333 2889,539.6666666666666 3136,539.6666666666666 3136,601.6666666666666 3145,601.6666666666666" fill="none" stroke="#d97706" stroke-width="1.8" marker-end="url(#native-10-arrow3)"><title>E29: N24:east → N28</title></polyline><polyline points="433.5,345.3333333333333 433.5,365.3333333333333 54,365.3333333333333 54,307.8333333333333 48,307.8333333333333" fill="none" stroke="#db2777" stroke-width="1.8" marker-end="url(#native-10-arrow4)"><title>E30: N32:south → G2</title></polyline><polyline points="1398.5,817.3333333333333 1398.5,792.3333333333333 1714,792.3333333333333 1714,531.3333333333333 1738,531.3333333333333 1738,317.3333333333333 1905,317.3333333333333 1905,304.3333333333333 1914,304.3333333333333" fill="none" stroke="#2563eb" stroke-width="1.8" ><title>E31: N13:north → N25</title></polyline><polyline points="1932.5,315.3333333333333 1932.5,351.3333333333333 1975,351.3333333333333 1975,1228.6666666666665 2146,1228.6666666666665" fill="none" stroke="#2563eb" stroke-width="1.8" marker-end="url(#native-10-arrow0)"><title>E31: N13:north → N25</title></polyline><polyline points="1615,152.33333333333331 1606,152.33333333333331 1606,111.33333333333333 1830,111.33333333333333" fill="none" stroke="#9333ea" stroke-width="1.8" ><title>E32: N21:west → G3</title></polyline><polyline points="1867,111.33333333333333 1963,111.33333333333333 1963,685.6666666666666 2526.5,685.6666666666666 2526.5,686.6666666666666" fill="none" stroke="#9333ea" stroke-width="1.8" marker-end="url(#native-10-arrow1)"><title>E32: N21:west → G3</title></polyline><polyline points="401,501.3333333333333 401,510.3333333333333 637,510.3333333333333 637,331.3333333333333 695.5,331.3333333333333 695.5,340.3333333333333" fill="none" stroke="#059669" stroke-width="1.8" marker-end="url(#native-10-arrow2)"><title>E33: N9:south → N4:north</title></polyline><polyline points="1255,566.8333333333333 1260,566.8333333333333 1260,661.3333333333333 1986,661.3333333333333 1986,752.6666666666666 2273,752.6666666666666 2273,783.1666666666666 2272,783.1666666666666" fill="none" stroke="#d97706" stroke-width="1.8" marker-end="url(#native-10-arrow3)"><title>E34: N27 → N20:east</title></polyline><polyline points="1061,729.3333333333333 1061,720.3333333333333 1158,720.3333333333333 1158,729.3333333333333 1194,729.3333333333333" fill="none" stroke="#db2777" stroke-width="1.8" ><title>E35: N26:north → N15:north</title></polyline><polyline points="1231,729.3333333333333 1354,729.3333333333333 1354,720.3333333333333 1362,720.3333333333333 1362,729.3333333333333" fill="none" stroke="#db2777" stroke-width="1.8" marker-end="url(#native-10-arrow4)"><title>E35: N26:north → N15:north</title></polyline><polyline points="981,581.8333333333333 972,581.8333333333333 972,703.3333333333333 1284,703.3333333333333 1284,704.3333333333333 1354,704.3333333333333 1354,699.3333333333333 1368.5,699.3333333333333 1368.5,689.8333333333333 1778,689.8333333333333 1778,618.3333333333333 1830,618.3333333333333" fill="none" stroke="#2563eb" stroke-width="1.8" ><title>E36: N17:west → N30</title></polyline><polyline points="1867,618.3333333333333 2016,618.3333333333333 2016,722.6666666666666 2857,722.6666666666666 2857,794.1666666666666 2858,794.1666666666666" fill="none" stroke="#2563eb" stroke-width="1.8" marker-end="url(#native-10-arrow0)"><title>E36: N17:west → N30</title></polyline><polyline points="805,494.1166666666667 826,494.1166666666667 826,475.3333333333333 861,475.3333333333333" fill="none" stroke="#9333ea" stroke-width="1.8" ><title>E37: N18 → N7</title></polyline><polyline points="898,475.3333333333333 934,475.3333333333333 934,888.3333333333333 1503,888.3333333333333 1503,753.3333333333333 1571,753.3333333333333 1571,745.8333333333333 1580,745.8333333333333" fill="none" stroke="#9333ea" stroke-width="1.8" marker-end="url(#native-10-arrow1)"><title>E37: N18 → N7</title></polyline><polyline points="2802,792.1666666666666 2858,792.1666666666666 2858,744.6666666666666 2906.5,744.6666666666666 2906.5,753.6666666666666" fill="none" stroke="#059669" stroke-width="1.8" marker-end="url(#native-10-arrow2)"><title>E38: N10 → N30:north</title></polyline><polyline points="2730,840.6666666666666 2730,843.6666666666666 2721,843.6666666666666 2721,849.6666666666666 2730,849.6666666666666 2730,840.6666666666666" fill="none" stroke="#d97706" stroke-width="1.8" marker-end="url(#native-10-arrow3)"><title>E39: N10:south → N10:south</title></polyline><polyline points="2328.5,1055.6666666666665 2328.5,1052.6666666666665 3342,1052.6666666666665 3342,35 3343,35" fill="none" stroke="#db2777" stroke-width="1.8" ><title>E40: N14:south → N6:north</title></polyline><polyline points="3380,35 3381,35 3381,24 1774,24 1774,541.3333333333333 1345,541.3333333333333 1345,538.3333333333333" fill="none" stroke="#db2777" stroke-width="1.8" marker-end="url(#native-10-arrow4)"><title>E40: N14:south → N6:north</title></polyline><polyline points="107,365.3333333333333 107,378.3333333333333 508,378.3333333333333 508,273.3333333333333 1999,273.3333333333333 1999,684.6666666666666 3207.5,684.6666666666666 3207.5,659.6666666666666" fill="none" stroke="#2563eb" stroke-width="1.8" marker-end="url(#native-10-arrow0)"><title>E41: N2:south → N28:south</title></polyline><polyline points="1199.5,595.3333333333333 1199.5,596.3333333333333 1195,596.3333333333333 1195,602.3333333333333" fill="none" stroke="#9333ea" stroke-width="1.8" marker-end="url(#native-10-arrow1)"><title>E42: N27:south → N24</title></polyline><polyline points="1362,729.3333333333333 1362,720.3333333333333 1475,720.3333333333333 1475,729.3333333333333 1487,729.3333333333333" fill="none" stroke="#059669" stroke-width="1.8" ><title>E43: N15:north → N7</title></polyline><polyline points="1524,722.3333333333333 1571,722.3333333333333 1571,757.8333333333333 1580,757.8333333333333" fill="none" stroke="#059669" stroke-width="1.8" marker-end="url(#native-10-arrow2)"><title>E43: N15:north → N7</title></polyline><polyline points="48,993.3333333333333 1120.5,993.3333333333333" fill="none" stroke="#d97706" stroke-width="1.8" ><title>E44: G2 → N27:south</title></polyline><polyline points="1139,982.3333333333333 1139,974.3333333333333 1120.5,974.3333333333333 1120.5,826.3333333333333 1138,826.3333333333333 1138,596.3333333333333 1199.5,596.3333333333333 1199.5,595.3333333333333" fill="none" stroke="#d97706" stroke-width="1.8" marker-end="url(#native-10-arrow3)"><title>E44: G2 → N27:south</title></polyline><polyline points="1726,689.8333333333333 1735,689.8333333333333 1735,1105.3333333333333 1902.5,1105.3333333333333 1902.5,1243.6666666666665 2134,1243.6666666666665 2134,1231.6666666666665 2143,1231.6666666666665" fill="none" stroke="#db2777" stroke-width="1.8" marker-end="url(#native-10-arrow4)"><title>E45: G6 → N25:west</title></polyline><polyline points="1625,1164.8333333333333 1616,1164.8333333333333 1616,1240.3333333333333 1794,1240.3333333333333" fill="none" stroke="#2563eb" stroke-width="1.8" ><title>E46: N16:west → N14</title></polyline><polyline points="1831,1240.3333333333333 1890.5,1240.3333333333333 1890.5,1281.6666666666665 2311,1281.6666666666665 2311,1052.6666666666665 2254,1052.6666666666665 2254,1008.1666666666666 2263,1008.1666666666666" fill="none" stroke="#2563eb" stroke-width="1.8" marker-end="url(#native-10-arrow0)"><title>E46: N16:west → N14</title></polyline><polyline points="2116,792.1666666666666 2122,792.1666666666666 2122,837.6666666666666 2462,837.6666666666666 2462,846.6666666666666 2727,846.6666666666666 2727,837.6666666666666" fill="none" stroke="#9333ea" stroke-width="1.8" marker-end="url(#native-10-arrow1)"><title>E47: G3 → N10</title></polyline><polyline points="3145,625.6666666666666 3004,625.6666666666666 3004,550.6666666666666 2877,550.6666666666666 2877,540.3333333333333 2072,540.3333333333333" fill="none" stroke="#059669" stroke-width="1.8" ><title>E48: N28 → N23</title></polyline><polyline points="2035,540.3333333333333 2026,540.3333333333333 2026,610.6666666666666 2060,610.6666666666666 2060,740.6666666666666 2445,740.6666666666666 2445,779.6666666666666 2436,779.6666666666666" fill="none" stroke="#059669" stroke-width="1.8" marker-end="url(#native-10-arrow2)"><title>E48: N28 → N23</title></polyline><polyline points="48,1023.3333333333333 1120.5,1023.3333333333333" fill="none" stroke="#d97706" stroke-width="1.8" ><title>E49: G2 → N6:north</title></polyline><polyline points="1139,1012.3333333333333 1139,1004.3333333333333 1272,1004.3333333333333 1272,537.3333333333333 1345,537.3333333333333 1345,538.3333333333333" fill="none" stroke="#d97706" stroke-width="1.8" marker-end="url(#native-10-arrow3)"><title>E49: G2 → N6:north</title></polyline><polyline points="472,301.8333333333333 496,301.8333333333333 496,446.3333333333333 853,446.3333333333333 853,444.3333333333333 946,444.3333333333333 946,678.6666666666666 945,678.6666666666666 945,677.8333333333333 954,677.8333333333333" fill="none" stroke="#db2777" stroke-width="1.8" marker-end="url(#native-10-arrow4)"><title>E50: N32 → G6</title></polyline><polyline points="3128,724.1666666666666 3125,724.1666666666666 3125,662.6666666666666 1955,662.6666666666666 1955,1089.3333333333333 1624,1089.3333333333333 1624,1164.8333333333333 1625,1164.8333333333333" fill="none" stroke="#2563eb" stroke-width="1.8" marker-end="url(#native-10-arrow0)"><title>E51: N31:east → N16:west</title></polyline><polyline points="1644,784.3333333333333 1644,900.3333333333333 826,900.3333333333333 826,524.3333333333333 625,524.3333333333333 625,479 589,479" fill="none" stroke="#9333ea" stroke-width="1.8" ><title>E52: N7:south → N18</title></polyline><polyline points="552,479 531,479 531,467 826,467 826,505.54999999999995 805,505.54999999999995" fill="none" stroke="#9333ea" stroke-width="1.8" marker-end="url(#native-10-arrow1)"><title>E52: N7:south → N18</title></polyline><polyline points="954,689.8333333333333 953,689.8333333333333 953,1041.3333333333333 1139,1041.3333333333333 1139,1042.3333333333333" fill="none" stroke="#059669" stroke-width="1.8" ><title>E53: G6 → G2</title></polyline><polyline points="1120.5,1053.3333333333333 48,1053.3333333333333" fill="none" stroke="#059669" stroke-width="1.8" marker-end="url(#native-10-arrow2)"><title>E53: G6 → G2</title></polyline><polyline points="1467,844.3333333333333 1491,844.3333333333333 1491,820.3333333333333 1523,820.3333333333333" fill="none" stroke="#d97706" stroke-width="1.8" ><title>E54: N13 → N7:west</title></polyline><polyline points="1541.5,809.3333333333333 1541.5,765.3333333333333 1568,765.3333333333333 1568,754.8333333333333 1577,754.8333333333333" fill="none" stroke="#d97706" stroke-width="1.8" marker-end="url(#native-10-arrow3)"><title>E54: N13 → N7:west</title></polyline><rect x="3379" y="462" width="30" height="22" rx="4" fill="#fff" stroke="#cbd5e1"/><text x="3387" y="477" font-size="11">E1</text><rect x="3145.5" y="893.6666666666666" width="30" height="22" rx="4" fill="#fff" stroke="#cbd5e1"/><text x="3153.5" y="908.6666666666666" font-size="11">E2</text><rect x="1884" y="394.3333333333333" width="30" height="22" rx="4" fill="#fff" stroke="#cbd5e1"/><text x="1892" y="409.3333333333333" font-size="11">E3</text><rect x="1864" y="437.3333333333333" width="30" height="22" rx="4" fill="#fff" stroke="#cbd5e1"/><text x="1872" y="452.3333333333333" font-size="11">E4</text><rect x="3029" y="781.6666666666666" width="30" height="22" rx="4" fill="#fff" stroke="#cbd5e1"/><text x="3037" y="796.6666666666666" font-size="11">E5</text><rect x="552" y="379.16666666666663" width="30" height="22" rx="4" fill="#fff" stroke="#cbd5e1"/><text x="560" y="394.16666666666663" font-size="11">E6</text><rect x="3373" y="1362.9999999999998" width="30" height="22" rx="4" fill="#fff" stroke="#cbd5e1"/><text x="3381" y="1377.9999999999998" font-size="11">E7</text><rect x="3353" y="82" width="30" height="22" rx="4" fill="#fff" stroke="#cbd5e1"/><text x="3361" y="97" font-size="11">E8</text><rect x="1931" y="235.33333333333331" width="30" height="22" rx="4" fill="#fff" stroke="#cbd5e1"/><text x="1939" y="250.33333333333331" font-size="11">E9</text><rect x="1830" y="1113.3333333333333" width="37" height="22" rx="4" fill="#fff" stroke="#cbd5e1"/><text x="1838" y="1128.3333333333333" font-size="11">E10</text><rect x="1904" y="351.3333333333333" width="37" height="22" rx="4" fill="#fff" stroke="#cbd5e1"/><text x="1912" y="366.3333333333333" font-size="11">E16</text><rect x="3262" y="785.3333333333333" width="37" height="22" rx="4" fill="#fff" stroke="#cbd5e1"/><text x="3270" y="800.3333333333333" font-size="11">E17</text><rect x="3029" y="940.6666666666666" width="37" height="22" rx="4" fill="#fff" stroke="#cbd5e1"/><text x="3037" y="955.6666666666666" font-size="11">E18</text><rect x="3353" y="1420.9999999999998" width="37" height="22" rx="4" fill="#fff" stroke="#cbd5e1"/><text x="3361" y="1435.9999999999998" font-size="11">E19</text><rect x="1830" y="1171.3333333333333" width="37" height="22" rx="4" fill="#fff" stroke="#cbd5e1"/><text x="1838" y="1186.3333333333333" font-size="11">E20</text><rect x="3052" y="547.6666666666666" width="37" height="22" rx="4" fill="#fff" stroke="#cbd5e1"/><text x="3060" y="562.6666666666666" font-size="11">E21</text><rect x="1323.5" y="669.3333333333333" width="37" height="22" rx="4" fill="#fff" stroke="#cbd5e1"/><text x="1331.5" y="684.3333333333333" font-size="11">E23</text><rect x="1834" y="491.3333333333333" width="37" height="22" rx="4" fill="#fff" stroke="#cbd5e1"/><text x="1842" y="506.3333333333333" font-size="11">E27</text><rect x="1120.5" y="952.3333333333333" width="37" height="22" rx="4" fill="#fff" stroke="#cbd5e1"/><text x="1128.5" y="967.3333333333333" font-size="11">E28</text><rect x="1830" y="549.3333333333333" width="37" height="22" rx="4" fill="#fff" stroke="#cbd5e1"/><text x="1838" y="564.3333333333333" font-size="11">E29</text><rect x="1914" y="293.3333333333333" width="37" height="22" rx="4" fill="#fff" stroke="#cbd5e1"/><text x="1922" y="308.3333333333333" font-size="11">E31</text><rect x="1830" y="100.33333333333333" width="37" height="22" rx="4" fill="#fff" stroke="#cbd5e1"/><text x="1838" y="115.33333333333333" font-size="11">E32</text><rect x="1194" y="711.3333333333333" width="37" height="22" rx="4" fill="#fff" stroke="#cbd5e1"/><text x="1202" y="726.3333333333333" font-size="11">E35</text><rect x="1830" y="607.3333333333333" width="37" height="22" rx="4" fill="#fff" stroke="#cbd5e1"/><text x="1838" y="622.3333333333333" font-size="11">E36</text><rect x="861" y="464.3333333333333" width="37" height="22" rx="4" fill="#fff" stroke="#cbd5e1"/><text x="869" y="479.3333333333333" font-size="11">E37</text><rect x="3343" y="24" width="37" height="22" rx="4" fill="#fff" stroke="#cbd5e1"/><text x="3351" y="39" font-size="11">E40</text><rect x="1487" y="711.3333333333333" width="37" height="22" rx="4" fill="#fff" stroke="#cbd5e1"/><text x="1495" y="726.3333333333333" font-size="11">E43</text><rect x="1120.5" y="982.3333333333333" width="37" height="22" rx="4" fill="#fff" stroke="#cbd5e1"/><text x="1128.5" y="997.3333333333333" font-size="11">E44</text><rect x="1794" y="1229.3333333333333" width="37" height="22" rx="4" fill="#fff" stroke="#cbd5e1"/><text x="1802" y="1244.3333333333333" font-size="11">E46</text><rect x="2035" y="529.3333333333333" width="37" height="22" rx="4" fill="#fff" stroke="#cbd5e1"/><text x="2043" y="544.3333333333333" font-size="11">E48</text><rect x="1120.5" y="1012.3333333333333" width="37" height="22" rx="4" fill="#fff" stroke="#cbd5e1"/><text x="1128.5" y="1027.3333333333333" font-size="11">E49</text><rect x="552" y="468" width="37" height="22" rx="4" fill="#fff" stroke="#cbd5e1"/><text x="560" y="483" font-size="11">E52</text><rect x="1120.5" y="1042.3333333333333" width="37" height="22" rx="4" fill="#fff" stroke="#cbd5e1"/><text x="1128.5" y="1057.3333333333333" font-size="11">E53</text><rect x="1523" y="809.3333333333333" width="37" height="22" rx="4" fill="#fff" stroke="#cbd5e1"/><text x="1531" y="824.3333333333333" font-size="11">E54</text><circle cx="3209" cy="833.1666666666666" r="3.5" fill="#0f172a"><title>N1:east</title></circle><circle cx="3163.5" cy="799.6666666666666" r="3.5" fill="#0f172a"><title>N1:north</title></circle><circle cx="3163.5" cy="860.6666666666666" r="3.5" fill="#0f172a"><title>N1:south</title></circle><circle cx="51" cy="323.8333333333333" r="3.5" fill="#0f172a"><title>N2:west</title></circle><circle cx="157" cy="323.8333333333333" r="3.5" fill="#0f172a"><title>N2:east</title></circle><circle cx="107" cy="276.3333333333333" r="3.5" fill="#0f172a"><title>N2:north</title></circle><circle cx="107" cy="365.3333333333333" r="3.5" fill="#0f172a"><title>N2:south</title></circle><circle cx="635" cy="393.8333333333333" r="3.5" fill="#0f172a"><title>N4:west</title></circle><circle cx="695.5" cy="340.3333333333333" r="3.5" fill="#0f172a"><title>N4:north</title></circle><circle cx="695.5" cy="441.3333333333333" r="3.5" fill="#0f172a"><title>N4:south</title></circle><circle cx="2143" cy="993.6666666666666" r="3.5" fill="#0f172a"><title>N5:west</title></circle><circle cx="2240" cy="993.6666666666666" r="3.5" fill="#0f172a"><title>N5:east</title></circle><circle cx="2194.5" cy="1020.6666666666666" r="3.5" fill="#0f172a"><title>N5:south</title></circle><circle cx="1281" cy="590.3333333333333" r="3.5" fill="#0f172a"><title>N6:west</title></circle><circle cx="1345" cy="538.3333333333333" r="3.5" fill="#0f172a"><title>N6:north</title></circle><circle cx="1577" cy="754.8333333333333" r="3.5" fill="#0f172a"><title>N7:west</title></circle><circle cx="1644" cy="719.3333333333333" r="3.5" fill="#0f172a"><title>N7:north</title></circle><circle cx="1644" cy="784.3333333333333" r="3.5" fill="#0f172a"><title>N7:south</title></circle><circle cx="2298" cy="1124.1666666666665" r="3.5" fill="#0f172a"><title>N8:east</title></circle><circle cx="2220.5" cy="1081.6666666666665" r="3.5" fill="#0f172a"><title>N8:north</title></circle><circle cx="321" cy="459.3333333333333" r="3.5" fill="#0f172a"><title>N9:west</title></circle><circle cx="475" cy="459.3333333333333" r="3.5" fill="#0f172a"><title>N9:east</title></circle><circle cx="401" cy="501.3333333333333" r="3.5" fill="#0f172a"><title>N9:south</title></circle><circle cx="2649" cy="795.1666666666666" r="3.5" fill="#0f172a"><title>N10:west</title></circle><circle cx="2805" cy="795.1666666666666" r="3.5" fill="#0f172a"><title>N10:east</title></circle><circle cx="2730" cy="840.6666666666666" r="3.5" fill="#0f172a"><title>N10:south</title></circle><circle cx="3205" cy="948.6666666666666" r="3.5" fill="#0f172a"><title>N11:north</title></circle><circle cx="3205" cy="1036.6666666666665" r="3.5" fill="#0f172a"><title>N11:south</title></circle><circle cx="2894" cy="607.6666666666666" r="3.5" fill="#0f172a"><title>N12:west</title></circle><circle cx="2949.5" cy="555.6666666666666" r="3.5" fill="#0f172a"><title>N12:north</title></circle><circle cx="1398.5" cy="817.3333333333333" r="3.5" fill="#0f172a"><title>N13:north</title></circle><circle cx="2391" cy="1011.1666666666666" r="3.5" fill="#0f172a"><title>N14:east</title></circle><circle cx="2328.5" cy="1055.6666666666665" r="3.5" fill="#0f172a"><title>N14:south</title></circle><circle cx="1362" cy="729.3333333333333" r="3.5" fill="#0f172a"><title>N15:north</title></circle><circle cx="1625" cy="1164.8333333333333" r="3.5" fill="#0f172a"><title>N16:west</title></circle><circle cx="1704" cy="1121.3333333333333" r="3.5" fill="#0f172a"><title>N16:north</title></circle><circle cx="981" cy="581.8333333333333" r="3.5" fill="#0f172a"><title>N17:west</title></circle><circle cx="1109" cy="581.8333333333333" r="3.5" fill="#0f172a"><title>N17:east</title></circle><circle cx="1048" cy="625.3333333333333" r="3.5" fill="#0f172a"><title>N17:south</title></circle><circle cx="183" cy="322.3333333333333" r="3.5" fill="#0f172a"><title>N19:west</title></circle><circle cx="245" cy="368.3333333333333" r="3.5" fill="#0f172a"><title>N19:south</title></circle><circle cx="2119" cy="783.1666666666666" r="3.5" fill="#0f172a"><title>N20:west</title></circle><circle cx="2272" cy="783.1666666666666" r="3.5" fill="#0f172a"><title>N20:east</title></circle><circle cx="2198.5" cy="749.6666666666666" r="3.5" fill="#0f172a"><title>N20:north</title></circle><circle cx="1615" cy="152.33333333333331" r="3.5" fill="#0f172a"><title>N21:west</title></circle><circle cx="1777" cy="152.33333333333331" r="3.5" fill="#0f172a"><title>N21:east</title></circle><circle cx="1699" cy="180.33333333333331" r="3.5" fill="#0f172a"><title>N21:south</title></circle><circle cx="1871" cy="710.8333333333333" r="3.5" fill="#0f172a"><title>N22:west</title></circle><circle cx="1917.5" cy="658.3333333333333" r="3.5" fill="#0f172a"><title>N22:north</title></circle><circle cx="2439" cy="782.6666666666666" r="3.5" fill="#0f172a"><title>N23:east</title></circle><circle cx="2368.5" cy="749.6666666666666" r="3.5" fill="#0f172a"><title>N23:north</title></circle><circle cx="2368.5" cy="809.6666666666666" r="3.5" fill="#0f172a"><title>N23:south</title></circle><circle cx="1255" cy="630.3333333333333" r="3.5" fill="#0f172a"><title>N24:east</title></circle><circle cx="1198" cy="599.3333333333333" r="3.5" fill="#0f172a"><title>N24:north</title></circle><circle cx="2143" cy="1231.6666666666665" r="3.5" fill="#0f172a"><title>N25:west</title></circle><circle cx="2306" cy="1231.6666666666665" r="3.5" fill="#0f172a"><title>N25:east</title></circle><circle cx="2227.5" cy="1180.6666666666665" r="3.5" fill="#0f172a"><title>N25:north</title></circle><circle cx="1061" cy="729.3333333333333" r="3.5" fill="#0f172a"><title>N26:north</title></circle><circle cx="1061" cy="829.3333333333333" r="3.5" fill="#0f172a"><title>N26:south</title></circle><circle cx="1135" cy="569.8333333333333" r="3.5" fill="#0f172a"><title>N27:west</title></circle><circle cx="1199.5" cy="538.3333333333333" r="3.5" fill="#0f172a"><title>N27:north</title></circle><circle cx="1199.5" cy="595.3333333333333" r="3.5" fill="#0f172a"><title>N27:south</title></circle><circle cx="3142" cy="610.6666666666666" r="3.5" fill="#0f172a"><title>N28:west</title></circle><circle cx="3207.5" cy="659.6666666666666" r="3.5" fill="#0f172a"><title>N28:south</title></circle><circle cx="2623" cy="802.6666666666666" r="3.5" fill="#0f172a"><title>N29:east</title></circle><circle cx="2544" cy="749.6666666666666" r="3.5" fill="#0f172a"><title>N29:north</title></circle><circle cx="2544" cy="849.6666666666666" r="3.5" fill="#0f172a"><title>N29:south</title></circle><circle cx="2855" cy="797.1666666666666" r="3.5" fill="#0f172a"><title>N30:west</title></circle><circle cx="2906.5" cy="753.6666666666666" r="3.5" fill="#0f172a"><title>N30:north</title></circle><circle cx="2906.5" cy="834.6666666666666" r="3.5" fill="#0f172a"><title>N30:south</title></circle><circle cx="3128" cy="724.1666666666666" r="3.5" fill="#0f172a"><title>N31:east</title></circle><circle cx="3080" cy="693.6666666666666" r="3.5" fill="#0f172a"><title>N31:north</title></circle><circle cx="433.5" cy="345.3333333333333" r="3.5" fill="#0f172a"><title>N32:south</title></circle></svg>