<svg xmlns="http://www.w3.org/2000/svg" viewBox="-24.0 -24.0 2725.5 2428.0" role="img" aria-label="Flat · denser" style="font-family:system-ui;background:white"><defs><marker id="stately-5-arrow0" markerWidth="7" markerHeight="7" refX="6" refY="3" orient="auto" markerUnits="userSpaceOnUse"><path d="M0,0 L6,3 L0,6" fill="#2563eb"/></marker><marker id="stately-5-arrow1" markerWidth="7" markerHeight="7" refX="6" refY="3" orient="auto" markerUnits="userSpaceOnUse"><path d="M0,0 L6,3 L0,6" fill="#9333ea"/></marker><marker id="stately-5-arrow2" markerWidth="7" markerHeight="7" refX="6" refY="3" orient="auto" markerUnits="userSpaceOnUse"><path d="M0,0 L6,3 L0,6" fill="#059669"/></marker><marker id="stately-5-arrow3" markerWidth="7" markerHeight="7" refX="6" refY="3" orient="auto" markerUnits="userSpaceOnUse"><path d="M0,0 L6,3 L0,6" fill="#d97706"/></marker><marker id="stately-5-arrow4" markerWidth="7" markerHeight="7" refX="6" refY="3" orient="auto" markerUnits="userSpaceOnUse"><path d="M0,0 L6,3 L0,6" fill="#db2777"/></marker></defs><g><title>N1 · 128 × 99 · parent none</title><rect x="1930.5" y="268" width="128" height="99" rx="6" fill="#fff" stroke="#94a3b8"/><text x="1940.5" y="291" font-size="13">N1</text></g><g><title>N2 · 157 × 58 · parent none</title><rect x="1834.5" y="992" width="157" height="58" rx="6" fill="#fff" stroke="#94a3b8"/><text x="1844.5" y="1015" font-size="13">N2</text></g><g><title>N3 · 93 × 66 · parent none</title><rect x="1958.5" y="1217" width="93" height="66" rx="6" fill="#fff" stroke="#94a3b8"/><text x="1968.5" y="1240" font-size="13">N3</text></g><g><title>N4 · 125 × 77 · parent none</title><rect x="741.5" y="526.5" width="125" height="77" rx="6" fill="#fff" stroke="#94a3b8"/><text x="751.5" y="549.5" font-size="13">N4</text></g><g><title>N5 · 157 × 58 · parent none</title><rect x="1372.5" y="1445" width="157" height="58" rx="6" fill="#fff" stroke="#94a3b8"/><text x="1382.5" y="1468" font-size="13">N5</text></g><g><title>N6 · 131 × 82 · parent none</title><rect x="1454" y="1217" width="131" height="82" rx="6" fill="#fff" stroke="#94a3b8"/><text x="1464" y="1240" font-size="13">N6</text></g><g><title>N7 · 129 × 76 · parent none</title><rect x="731.5" y="754.8" width="129" height="76" rx="6" fill="#fff" stroke="#94a3b8"/><text x="741.5" y="777.8" font-size="13">N7</text></g><g><title>N8 · 140 × 82 · parent none</title><rect x="1754.5" y="40" width="140" height="82" rx="6" fill="#fff" stroke="#94a3b8"/><text x="1764.5" y="63" font-size="13">N8</text></g><g><title>N9 · 81 × 79 · parent none</title><rect x="518.5" y="753" width="81" height="79" rx="6" fill="#fff" stroke="#94a3b8"/><text x="528.5" y="776" font-size="13">N9</text></g><g><title>N10 · 100 × 72 · parent none</title><rect x="152" y="30" width="100" height="72" rx="6" fill="#fff" stroke="#94a3b8"/><text x="162" y="53" font-size="13">N10</text></g><g><title>N11 · 158 × 71 · parent none</title><rect x="1904.5" y="1643" width="158" height="71" rx="6" fill="#fff" stroke="#94a3b8"/><text x="1914.5" y="1666" font-size="13">N11</text></g><g><title>N12 · 118 × 72 · parent none</title><rect x="1522.5" y="756.5" width="118" height="72" rx="6" fill="#fff" stroke="#94a3b8"/><text x="1532.5" y="779.5" font-size="13">N12</text></g><g><title>N13 · 138 × 71 · parent none</title><rect x="1522.5" y="536" width="138" height="71" rx="6" fill="#fff" stroke="#94a3b8"/><text x="1532.5" y="559" font-size="13">N13</text></g><g><title>N14 · 137 × 66 · parent none</title><rect x="1329.5" y="295.5" width="137" height="66" rx="6" fill="#fff" stroke="#94a3b8"/><text x="1339.5" y="318.5" font-size="13">N14</text></g><g><title>N15 · 128 × 56 · parent none</title><rect x="565.5" y="1015" width="128" height="56" rx="6" fill="#fff" stroke="#94a3b8"/><text x="575.5" y="1038" font-size="13">N15</text></g><g><title>N16 · 102 × 73 · parent none</title><rect x="1616.5" y="49" width="102" height="73" rx="6" fill="#fff" stroke="#94a3b8"/><text x="1626.5" y="72" font-size="13">N16</text></g><g><title>N17 · 128 × 75 · parent none</title><rect x="1185.5" y="532" width="128" height="75" rx="6" fill="#fff" stroke="#94a3b8"/><text x="1195.5" y="555" font-size="13">N17</text></g><g><title>N18 · 131 × 54 · parent none</title><rect x="729.5" y="997.5" width="131" height="54" rx="6" fill="#fff" stroke="#94a3b8"/><text x="739.5" y="1020.5" font-size="13">N18</text></g><g><title>N19 · 123 × 93 · parent none</title><rect x="896.5" y="978" width="123" height="93" rx="6" fill="#fff" stroke="#94a3b8"/><text x="906.5" y="1001" font-size="13">N19</text></g><g><title>N20 · 97 × 81 · parent none</title><rect x="1321" y="1218" width="97" height="81" rx="6" fill="#fff" stroke="#94a3b8"/><text x="1331" y="1241" font-size="13">N20</text></g><g><title>N21 · 122 × 58 · parent none</title><rect x="896.5" y="758.25" width="122" height="58" rx="6" fill="#fff" stroke="#94a3b8"/><text x="906.5" y="781.25" font-size="13">N21</text></g><g><title>N22 · 96 × 52 · parent none</title><rect x="30" y="24" width="96" height="52" rx="6" fill="#fff" stroke="#94a3b8"/><text x="40" y="47" font-size="13">N22</text></g><g><title>N23 · 103 × 63 · parent none</title><rect x="681" y="292" width="103" height="63" rx="6" fill="#fff" stroke="#94a3b8"/><text x="691" y="315" font-size="13">N23</text></g><g><title>N24 · 81 × 61 · parent none</title><rect x="1028.5" y="1217" width="81" height="61" rx="6" fill="#fff" stroke="#94a3b8"/><text x="1038.5" y="1240" font-size="13">N24</text></g><g><title>N25 · 114 × 92 · parent none</title><rect x="1055.5" y="978.3333333333334" width="114" height="92" rx="6" fill="#fff" stroke="#94a3b8"/><text x="1065.5" y="1001.3333333333334" font-size="13">N25</text></g><g><title>N26 · 95 × 54 · parent none</title><rect x="1370.5" y="761.3333333333333" width="95" height="54" rx="6" fill="#fff" stroke="#94a3b8"/><text x="1380.5" y="784.3333333333333" font-size="13">N26</text></g><g><title>N27 · 114 × 90 · parent none</title><rect x="1948.5" y="32" width="114" height="90" rx="6" fill="#fff" stroke="#94a3b8"/><text x="1958.5" y="55" font-size="13">N27</text></g><g><title>N28 · 149 × 84 · parent none</title><rect x="1838.5" y="513" width="149" height="84" rx="6" fill="#fff" stroke="#94a3b8"/><text x="1848.5" y="536" font-size="13">N28</text></g><g><title>N29 · 99 × 83 · parent none</title><rect x="568" y="514" width="99" height="83" rx="6" fill="#fff" stroke="#94a3b8"/><text x="578" y="537" font-size="13">N29</text></g><g><title>N30 · 107 × 71 · parent none</title><rect x="425" y="513" width="107" height="71" rx="6" fill="#fff" stroke="#94a3b8"/><text x="435" y="536" font-size="13">N30</text></g><g><title>N31 · 107 × 73 · parent none</title><rect x="902.5" y="530.3333333333333" width="107" height="73" rx="6" fill="#fff" stroke="#94a3b8"/><text x="912.5" y="553.3333333333333" font-size="13">N31</text></g><g><title>N32 · 121 × 95 · parent none</title><rect x="278" y="30" width="121" height="95" rx="6" fill="#fff" stroke="#94a3b8"/><text x="288" y="53" font-size="13">N32</text></g><polyline points="1997.5,370 1997.5,402 2023.25,402 2023.25,757.25 2007.5,757.25 2007.5,1024 1994.5,1024" fill="none" stroke="#2563eb" stroke-width="1.8" marker-end="url(#stately-5-arrow0)"><title>E1: N1:south → N2:east</title></polyline><polyline points="1916,1053 1916,1140.25 1952.5,1140.25 1952.5,1148.25" fill="none" stroke="#9333ea" stroke-width="1.8" ><title>E2: N2:south → N3:west</title></polyline><polyline points="1955.5,1170.25 1955.5,1217 1946.5,1217 1946.5,1253 1955.5,1253" fill="none" stroke="#9333ea" stroke-width="1.8" marker-end="url(#stately-5-arrow1)"><title>E2: N2:south → N3:west</title></polyline><polyline points="2054.5,1253 2121.625,1253 2121.625,320.5 2061.5,320.5" fill="none" stroke="#059669" stroke-width="1.8" marker-end="url(#stately-5-arrow2)"><title>E3: N3:east → N1:east</title></polyline><polyline points="738.5,568 729.5,568 729.5,517.5 804,517.5 804,526.5" fill="none" stroke="#d97706" stroke-width="1.8" marker-end="url(#stately-5-arrow3)"><title>E4: N4:west → N4</title></polyline><polyline points="1454,1442 1454,1394" fill="none" stroke="#db2777" stroke-width="1.8" ><title>E5: N5:north → N6</title></polyline><polyline points="1454,1372 1454,1371 1519.5,1371 1519.5,1299" fill="none" stroke="#db2777" stroke-width="1.8" marker-end="url(#stately-5-arrow4)"><title>E5: N5:north → N6</title></polyline><polyline points="1454,1442 1454,1414 2024.75,1414 2024.75,1373.25 2064,1373.25" fill="none" stroke="#2563eb" stroke-width="1.8" ><title>E6: N5:north → N6:north</title></polyline><polyline points="2094,1373.25 2121.625,1373.25 2121.625,1303 1998.5,1303 1998.5,1291 1950.5,1291 1950.5,1265 1585,1265 1585,1193 1522.5,1193 1522.5,1214" fill="none" stroke="#2563eb" stroke-width="1.8" marker-end="url(#stately-5-arrow0)"><title>E6: N5:north → N6:north</title></polyline><polyline points="957.5,816.25 957.5,883.65 884.5,883.65 884.5,899.125 896.5,899.125 896.5,900.125" fill="none" stroke="#9333ea" stroke-width="1.8" ><title>E7: N21 → N19</title></polyline><polyline points="911.5,911.125 920.5,911.125 920.5,958 964,958 964,978" fill="none" stroke="#9333ea" stroke-width="1.8" marker-end="url(#stately-5-arrow1)"><title>E7: N21 → N19</title></polyline><polyline points="1451,1445 1451,1414 557.5,1414 557.5,1024.5 548.25,1024.5" fill="none" stroke="#059669" stroke-width="1.8" ><title>E8: N5 → N29:south</title></polyline><polyline points="533.25,1013.5 533.25,840 510.5,840 510.5,609 620.5,609 620.5,600" fill="none" stroke="#059669" stroke-width="1.8" marker-end="url(#stately-5-arrow2)"><title>E8: N5 → N29:south</title></polyline><polyline points="1670.5,125 1670.5,154 1682.5,154 1682.5,297.5 1670.5,297.5 1670.5,306.5" fill="none" stroke="#d97706" stroke-width="1.8" ><title>E9: N16:south → N26</title></polyline><polyline points="1670.5,328.5 1670.5,528 1430,528 1430,761.3333333333333" fill="none" stroke="#d97706" stroke-width="1.8" marker-end="url(#stately-5-arrow3)"><title>E9: N16:south → N26</title></polyline><polyline points="1369.5,1477 1360.5,1477 1360.5,1527 1702,1527" fill="none" stroke="#db2777" stroke-width="1.8" ><title>E10: N5:west → N11:north</title></polyline><polyline points="1739,1527 1986.5,1527 1986.5,1640" fill="none" stroke="#db2777" stroke-width="1.8" marker-end="url(#stately-5-arrow4)"><title>E10: N5:west → N11:north</title></polyline><polyline points="1990.5,558 1999.5,558 1999.5,441 1990.5,441 1990.5,432" fill="none" stroke="#2563eb" stroke-width="1.8" ><title>E11: N28:east → N1:east</title></polyline><polyline points="1996.75,410 1996.75,367 2070.5,367 2070.5,320.5 2061.5,320.5" fill="none" stroke="#2563eb" stroke-width="1.8" marker-end="url(#stately-5-arrow0)"><title>E11: N28:east → N1:east</title></polyline><polyline points="899.5,569.8333333333333 874.5,569.8333333333333 874.5,631 787.1833333333334,631" fill="none" stroke="#9333ea" stroke-width="1.8" ><title>E12: N31:west → N7</title></polyline><polyline points="768.6833333333334,642 768.6833333333334,745.8 802,745.8 802,754.8" fill="none" stroke="#9333ea" stroke-width="1.8" marker-end="url(#stately-5-arrow1)"><title>E12: N31:west → N7</title></polyline><polyline points="1454,1442 1454,1402 1929.5,1402 1929.5,1058 2044.625,1058 2044.625,937.25 2060.5,937.25" fill="none" stroke="#059669" stroke-width="1.8" ><title>E13: N5:north → N8:north</title></polyline><polyline points="2079,926.25 2079,801.25 2097.625,801.25 2097.625,24 1827.5,24 1827.5,37" fill="none" stroke="#059669" stroke-width="1.8" marker-end="url(#stately-5-arrow2)"><title>E13: N5:north → N8:north</title></polyline><polyline points="2065.5,80 2109.625,80 2109.625,1681.5 2065.5,1681.5" fill="none" stroke="#d97706" stroke-width="1.8" marker-end="url(#stately-5-arrow3)"><title>E14: N27:east → N11:east</title></polyline><polyline points="960.5,755.25 960.5,746.25 1995.5,746.25 1995.5,776.25 2015.5,776.25" fill="none" stroke="#db2777" stroke-width="1.8" ><title>E15: N21:north → N17:north</title></polyline><polyline points="2052.5,776.25 1252.5,529" fill="none" stroke="#db2777" stroke-width="1.8" marker-end="url(#stately-5-arrow4)"><title>E15: N21:north → N17:north</title></polyline><polyline points="1022.5,1027.5 1047.5,1027.5 1047.5,1145 1212.5,1145" fill="none" stroke="#2563eb" stroke-width="1.8" ><title>E16: N19:east → N6</title></polyline><polyline points="1249.5,1145 1445,1145 1445,1258 1454,1258" fill="none" stroke="#2563eb" stroke-width="1.8" marker-end="url(#stately-5-arrow0)"><title>E16: N19:east → N6</title></polyline><polyline points="1072,1214 1072,1174 721.5,1174 721.5,1043 693.5,1043" fill="none" stroke="#9333ea" stroke-width="1.8" marker-end="url(#stately-5-arrow1)"><title>E17: N24:north → N15</title></polyline><polyline points="1997.5,265 1997.5,256 1824.5,256 1824.5,122" fill="none" stroke="#059669" stroke-width="1.8" marker-end="url(#stately-5-arrow2)"><title>E18: N1:north → N8</title></polyline><polyline points="787,326.5 796,326.5 796,401 593.25,401" fill="none" stroke="#d97706" stroke-width="1.8" ><title>E19: N23:east → N30</title></polyline><polyline points="574.75,412 574.75,506 541,506 541,548.5 532,548.5" fill="none" stroke="#d97706" stroke-width="1.8" marker-end="url(#stately-5-arrow3)"><title>E19: N23:east → N30</title></polyline><polyline points="2065.5,80 2074.5,80 2074.5,320.5 2061.5,320.5" fill="none" stroke="#db2777" stroke-width="1.8" marker-end="url(#stately-5-arrow4)"><title>E20: N27:east → N1:east</title></polyline><polyline points="1721.5,88.5 1730.5,88.5 1730.5,146 1163,146" fill="none" stroke="#2563eb" stroke-width="1.8" ><title>E21: N16:east → N23</title></polyline><polyline points="1126,146 793,146 793,323.5 784,323.5" fill="none" stroke="#2563eb" stroke-width="1.8" marker-end="url(#stately-5-arrow0)"><title>E21: N16:east → N23</title></polyline><polyline points="599.5,792.5 687.25,792.5 687.25,973" fill="none" stroke="#9333ea" stroke-width="1.8" ><title>E22: N9 → N24:east</title></polyline><polyline points="705.75,984 888.5,984 888.5,1136 1035.5,1136 1035.5,1162 1089,1162 1089,1217 1121.5,1217 1121.5,1250.5 1112.5,1250.5" fill="none" stroke="#9333ea" stroke-width="1.8" marker-end="url(#stately-5-arrow1)"><title>E22: N9 → N24:east</title></polyline><polyline points="1465.5,788.3333333333333 1514.5,788.3333333333333 1514.5,984 1637.1666666666665,984 1637.1666666666665,1013.5" fill="none" stroke="#059669" stroke-width="1.8" ><title>E23: N26 → N3:east</title></polyline><polyline points="1655.6666666666665,1024.5 1826.5,1024.5 1826.5,1217 2063.5,1217 2063.5,1253 2054.5,1253" fill="none" stroke="#059669" stroke-width="1.8" marker-end="url(#stately-5-arrow2)"><title>E23: N26 → N3:east</title></polyline><polyline points="1522.5,1214 1522.5,1035.5" fill="none" stroke="#d97706" stroke-width="1.8" ><title>E24: N6:north → N12</title></polyline><polyline points="1522.5,1013.5 1522.5,996 1581.5,996 1581.5,828.5" fill="none" stroke="#d97706" stroke-width="1.8" marker-end="url(#stately-5-arrow3)"><title>E24: N6:north → N12</title></polyline><polyline points="1594.5,610 1594.5,734.25 1418,734.25 1418,761.3333333333333" fill="none" stroke="#db2777" stroke-width="1.8" marker-end="url(#stately-5-arrow4)"><title>E25: N13:south → N26</title></polyline><polyline points="1986.5,1640 1986.5,1299 1185.5,1299 1185.5,572.5 1182.5,572.5" fill="none" stroke="#2563eb" stroke-width="1.8" marker-end="url(#stately-5-arrow0)"><title>E26: N11:north → N17:west</title></polyline><polyline points="1372.5,1302 1372.5,1345.25 1435.5,1345.25" fill="none" stroke="#9333ea" stroke-width="1.8" ><title>E27: N20:south → N5:north</title></polyline><polyline points="1454,1356.25 1454,1372 1439,1372 1439,1441 1454,1441 1454,1442" fill="none" stroke="#9333ea" stroke-width="1.8" marker-end="url(#stately-5-arrow1)"><title>E27: N20:south → N5:north</title></polyline><polyline points="860.5,792.8 870,792.8 870,970 1046.5,970 1046.5,1024.3333333333335 1055.5,1024.3333333333335" fill="none" stroke="#059669" stroke-width="1.8" marker-end="url(#stately-5-arrow2)"><title>E28: N7 → N25</title></polyline><polyline points="807,606.5 807,671 1098.6666666666665,671" fill="none" stroke="#d97706" stroke-width="1.8" ><title>E29: N4:south → N26</title></polyline><polyline points="1135.6666666666665,671 1361.5,671 1361.5,782.3333333333333 1370.5,782.3333333333333" fill="none" stroke="#d97706" stroke-width="1.8" marker-end="url(#stately-5-arrow3)"><title>E29: N4:south → N26</title></polyline><polyline points="2065.5,1681.5 2074.5,1681.5 2074.5,1392.25 2056,1392.25 2056,1291 2075.5,1291 2075.5,1209.25 2065.5,1209.25 2065.5,1200.25" fill="none" stroke="#db2777" stroke-width="1.8" ><title>E30: N11:east → N6:north</title></polyline><polyline points="2032.75,1189.25 1522.5,1189.25 1522.5,1214" fill="none" stroke="#db2777" stroke-width="1.8" marker-end="url(#stately-5-arrow4)"><title>E30: N11:east → N6:north</title></polyline><polyline points="1994.5,1024 2003.5,1024 2003.5,970 1812.5,970 1812.5,143 1827.5,143 1827.5,125" fill="none" stroke="#2563eb" stroke-width="1.8" marker-end="url(#stately-5-arrow0)"><title>E31: N2:east → N8:south</title></polyline><polyline points="1997.5,265 1997.5,244 1930.5,244 1930.5,513 2011.5,513 2011.5,558 1990.5,558" fill="none" stroke="#9333ea" stroke-width="1.8" marker-end="url(#stately-5-arrow1)"><title>E32: N1:north → N28:east</title></polyline><polyline points="617.5,597 617.5,745 790,745 790,754.8" fill="none" stroke="#059669" stroke-width="1.8" marker-end="url(#stately-5-arrow2)"><title>E33: N29 → N7</title></polyline><polyline points="1326.5,331.5 1317.5,331.5 1317.5,524 1406,524 1406,761.3333333333333" fill="none" stroke="#d97706" stroke-width="1.8" marker-end="url(#stately-5-arrow3)"><title>E34: N14:west → N26</title></polyline><polyline points="562,750 562,677.75" fill="none" stroke="#db2777" stroke-width="1.8" ><title>E35: N9:north → N29:west</title></polyline><polyline points="565,655.75 565,560.5 556,560.5 556,558.5 565,558.5" fill="none" stroke="#db2777" stroke-width="1.8" marker-end="url(#stately-5-arrow4)"><title>E35: N9:north → N29:west</title></polyline><polyline points="1999,1217 1999,842.65 1494,842.65" fill="none" stroke="#2563eb" stroke-width="1.8" ><title>E36: N3 → N14</title></polyline><polyline points="1475.5,831.65 1475.5,504.75 1398,504.75 1398,361.5" fill="none" stroke="#2563eb" stroke-width="1.8" marker-end="url(#stately-5-arrow0)"><title>E36: N3 → N14</title></polyline><polyline points="2011,1217 2011,1141.25 1958.5,1141.25 1958.5,1140.25" fill="none" stroke="#9333ea" stroke-width="1.8" ><title>E37: N3 → N2:south</title></polyline><polyline points="1958.5,1118.25 1958.5,1074 1916,1074 1916,1053" fill="none" stroke="#9333ea" stroke-width="1.8" marker-end="url(#stately-5-arrow1)"><title>E37: N3 → N2:south</title></polyline><polyline points="1326.5,331.5 1305.5,331.5 1305.5,382.5 1329.5,382.5 1329.5,760.5 1326.5,760.5 1326.5,781.5" fill="none" stroke="#059669" stroke-width="1.8" ><title>E38: N14:west → N3:east</title></polyline><polyline points="1353.5,792.5 1358.5,792.5 1358.5,1205 2051.5,1205 2051.5,1253 2054.5,1253" fill="none" stroke="#059669" stroke-width="1.8" marker-end="url(#stately-5-arrow2)"><title>E38: N14:west → N3:east</title></polyline><polyline points="1401,364.5 1401,391 1098.3333333333335,391" fill="none" stroke="#d97706" stroke-width="1.8" ><title>E39: N14:south → N31</title></polyline><polyline points="1079.8333333333335,402 1079.8333333333335,566.8333333333333 1009.5,566.8333333333333" fill="none" stroke="#d97706" stroke-width="1.8" marker-end="url(#stately-5-arrow3)"><title>E39: N14:south → N31</title></polyline><polyline points="735.5,358 735.5,467.5" fill="none" stroke="#db2777" stroke-width="1.8" ><title>E40: N23:south → N4:west</title></polyline><polyline points="738.5,489.5 738.5,526.5 729.5,526.5 729.5,568 738.5,568" fill="none" stroke="#db2777" stroke-width="1.8" marker-end="url(#stately-5-arrow4)"><title>E40: N23:south → N4:west</title></polyline><polyline points="952,978 952,900.125 896.5,900.125 896.5,883.65" fill="none" stroke="#2563eb" stroke-width="1.8" ><title>E41: N19 → N7:south</title></polyline><polyline points="878,872.65 799,872.65 799,833.8" fill="none" stroke="#2563eb" stroke-width="1.8" marker-end="url(#stately-5-arrow0)"><title>E41: N19 → N7:south</title></polyline><polyline points="799,833.8 799,860.65 787,860.65 787,892.125 799,892.125 799,916.65" fill="none" stroke="#9333ea" stroke-width="1.8" ><title>E42: N7:south → N18:north</title></polyline><polyline points="798,938.65 798,994.5" fill="none" stroke="#9333ea" stroke-width="1.8" marker-end="url(#stately-5-arrow1)"><title>E42: N7:south → N18:north</title></polyline><polyline points="963.5,758.25 2052.625,782.25" fill="none" stroke="#059669" stroke-width="1.8" ><title>E43: N21 → N14:north</title></polyline><polyline points="2089.625,782.25 2138.625,782.25 2138.625,379 1466.5,379 1466.5,291.5 1401,291.5 1401,292.5" fill="none" stroke="#059669" stroke-width="1.8" marker-end="url(#stately-5-arrow2)"><title>E43: N21 → N14:north</title></polyline><polyline points="807,606.5 807,619 1830.5,619 1830.5,633.5 1872.25,633.5" fill="none" stroke="#d97706" stroke-width="1.8" ><title>E44: N4:south → N16:east</title></polyline><polyline points="1890.75,622.5 1890.75,597 1722.5,597 1722.5,88.5 1721.5,88.5" fill="none" stroke="#d97706" stroke-width="1.8" marker-end="url(#stately-5-arrow3)"><title>E44: N4:south → N16:east</title></polyline><polyline points="1640.5,798.5 2019.5,798.5 2019.5,1024 1994.5,1024" fill="none" stroke="#db2777" stroke-width="1.8" marker-end="url(#stately-5-arrow4)"><title>E45: N12 → N2:east</title></polyline><polyline points="899.5,569.8333333333333 890.5,569.8333333333333 890.5,749.25 951.5,749.25 951.5,758.25" fill="none" stroke="#2563eb" stroke-width="1.8" marker-end="url(#stately-5-arrow0)"><title>E46: N31:west → N21</title></polyline><polyline points="1591.5,607 1591.5,631 1522.5,631 1522.5,684.75" fill="none" stroke="#9333ea" stroke-width="1.8" ><title>E47: N13 → N12</title></polyline><polyline points="1522.5,706.75 1522.5,722.25 1581.5,722.25 1581.5,756.5" fill="none" stroke="#9333ea" stroke-width="1.8" marker-end="url(#stately-5-arrow1)"><title>E47: N13 → N12</title></polyline><polyline points="798,1054.5 798,1155 891,1155" fill="none" stroke="#059669" stroke-width="1.8" ><title>E48: N18:south → N24</title></polyline><polyline points="928,1155 937,1155 937,1247.5 1028.5,1247.5" fill="none" stroke="#059669" stroke-width="1.8" marker-end="url(#stately-5-arrow2)"><title>E48: N18:south → N24</title></polyline><polyline points="1115.5,1073.3333333333335 1115.5,1166.4166666666667" fill="none" stroke="#d97706" stroke-width="1.8" ><title>E49: N25:south → N24:east</title></polyline><polyline points="1112.5,1188.4166666666667 1112.5,1217 1121.5,1217 1121.5,1250.5 1112.5,1250.5" fill="none" stroke="#d97706" stroke-width="1.8" marker-end="url(#stately-5-arrow3)"><title>E49: N25:south → N24:east</title></polyline><polyline points="1370.5,794.3333333333333 1361.5,794.3333333333333 1361.5,794.25 1370.5,794.25 1370.5,1024.3333333333335 1169.5,1024.3333333333335" fill="none" stroke="#db2777" stroke-width="1.8" marker-end="url(#stately-5-arrow4)"><title>E50: N26 → N25</title></polyline><polyline points="1469.5,331.5 1493.75,331.5 1493.75,177" fill="none" stroke="#2563eb" stroke-width="1.8" ><title>E51: N14:east → N16:south</title></polyline><polyline points="1512.25,166 1670.5,166 1670.5,125" fill="none" stroke="#2563eb" stroke-width="1.8" marker-end="url(#stately-5-arrow0)"><title>E51: N14:east → N16:south</title></polyline><polyline points="1990.5,558 1999.5,558 1999.5,734.25 1661.5,734.25 1661.5,786.5 1640.5,786.5" fill="none" stroke="#9333ea" stroke-width="1.8" marker-end="url(#stately-5-arrow1)"><title>E52: N28:east → N12</title></polyline><rect x="1937.5" y="1148.25" width="30" height="22" rx="4" fill="#fff" stroke="#cbd5e1"/><text x="1945.5" y="1163.25" font-size="11">E2</text><rect x="1439" y="1372" width="30" height="22" rx="4" fill="#fff" stroke="#cbd5e1"/><text x="1447" y="1387" font-size="11">E5</text><rect x="2064" y="1362.25" width="30" height="22" rx="4" fill="#fff" stroke="#cbd5e1"/><text x="2072" y="1377.25" font-size="11">E6</text><rect x="881.5" y="900.125" width="30" height="22" rx="4" fill="#fff" stroke="#cbd5e1"/><text x="889.5" y="915.125" font-size="11">E7</text><rect x="518.25" y="1013.5" width="30" height="22" rx="4" fill="#fff" stroke="#cbd5e1"/><text x="526.25" y="1028.5" font-size="11">E8</text><rect x="1655.5" y="306.5" width="30" height="22" rx="4" fill="#fff" stroke="#cbd5e1"/><text x="1663.5" y="321.5" font-size="11">E9</text><rect x="1702" y="1516" width="37" height="22" rx="4" fill="#fff" stroke="#cbd5e1"/><text x="1710" y="1531" font-size="11">E10</text><rect x="1978.25" y="410" width="37" height="22" rx="4" fill="#fff" stroke="#cbd5e1"/><text x="1986.25" y="425" font-size="11">E11</text><rect x="750.1833333333334" y="620" width="37" height="22" rx="4" fill="#fff" stroke="#cbd5e1"/><text x="758.1833333333334" y="635" font-size="11">E12</text><rect x="2060.5" y="926.25" width="37" height="22" rx="4" fill="#fff" stroke="#cbd5e1"/><text x="2068.5" y="941.25" font-size="11">E13</text><rect x="2015.5" y="765.25" width="37" height="22" rx="4" fill="#fff" stroke="#cbd5e1"/><text x="2023.5" y="780.25" font-size="11">E15</text><rect x="1212.5" y="1134" width="37" height="22" rx="4" fill="#fff" stroke="#cbd5e1"/><text x="1220.5" y="1149" font-size="11">E16</text><rect x="556.25" y="390" width="37" height="22" rx="4" fill="#fff" stroke="#cbd5e1"/><text x="564.25" y="405" font-size="11">E19</text><rect x="1126" y="135" width="37" height="22" rx="4" fill="#fff" stroke="#cbd5e1"/><text x="1134" y="150" font-size="11">E21</text><rect x="668.75" y="973" width="37" height="22" rx="4" fill="#fff" stroke="#cbd5e1"/><text x="676.75" y="988" font-size="11">E22</text><rect x="1618.6666666666665" y="1013.5" width="37" height="22" rx="4" fill="#fff" stroke="#cbd5e1"/><text x="1626.6666666666665" y="1028.5" font-size="11">E23</text><rect x="1504" y="1013.5" width="37" height="22" rx="4" fill="#fff" stroke="#cbd5e1"/><text x="1512" y="1028.5" font-size="11">E24</text><rect x="1435.5" y="1334.25" width="37" height="22" rx="4" fill="#fff" stroke="#cbd5e1"/><text x="1443.5" y="1349.25" font-size="11">E27</text><rect x="1098.6666666666665" y="660" width="37" height="22" rx="4" fill="#fff" stroke="#cbd5e1"/><text x="1106.6666666666665" y="675" font-size="11">E29</text><rect x="2032.75" y="1178.25" width="37" height="22" rx="4" fill="#fff" stroke="#cbd5e1"/><text x="2040.75" y="1193.25" font-size="11">E30</text><rect x="543.5" y="655.75" width="37" height="22" rx="4" fill="#fff" stroke="#cbd5e1"/><text x="551.5" y="670.75" font-size="11">E35</text><rect x="1457" y="831.65" width="37" height="22" rx="4" fill="#fff" stroke="#cbd5e1"/><text x="1465" y="846.65" font-size="11">E36</text><rect x="1940" y="1118.25" width="37" height="22" rx="4" fill="#fff" stroke="#cbd5e1"/><text x="1948" y="1133.25" font-size="11">E37</text><rect x="1316.5" y="781.5" width="37" height="22" rx="4" fill="#fff" stroke="#cbd5e1"/><text x="1324.5" y="796.5" font-size="11">E38</text><rect x="1061.3333333333335" y="380" width="37" height="22" rx="4" fill="#fff" stroke="#cbd5e1"/><text x="1069.3333333333335" y="395" font-size="11">E39</text><rect x="717" y="467.5" width="37" height="22" rx="4" fill="#fff" stroke="#cbd5e1"/><text x="725" y="482.5" font-size="11">E40</text><rect x="878" y="861.65" width="37" height="22" rx="4" fill="#fff" stroke="#cbd5e1"/><text x="886" y="876.65" font-size="11">E41</text><rect x="779.5" y="916.65" width="37" height="22" rx="4" fill="#fff" stroke="#cbd5e1"/><text x="787.5" y="931.65" font-size="11">E42</text><rect x="2052.625" y="771.25" width="37" height="22" rx="4" fill="#fff" stroke="#cbd5e1"/><text x="2060.625" y="786.25" font-size="11">E43</text><rect x="1872.25" y="622.5" width="37" height="22" rx="4" fill="#fff" stroke="#cbd5e1"/><text x="1880.25" y="637.5" font-size="11">E44</text><rect x="1504" y="684.75" width="37" height="22" rx="4" fill="#fff" stroke="#cbd5e1"/><text x="1512" y="699.75" font-size="11">E47</text><rect x="891" y="1144" width="37" height="22" rx="4" fill="#fff" stroke="#cbd5e1"/><text x="899" y="1159" font-size="11">E48</text><rect x="1097" y="1166.4166666666667" width="37" height="22" rx="4" fill="#fff" stroke="#cbd5e1"/><text x="1105" y="1181.4166666666667" font-size="11">E49</text><rect x="1475.25" y="155" width="37" height="22" rx="4" fill="#fff" stroke="#cbd5e1"/><text x="1483.25" y="170" font-size="11">E51</text><circle cx="1927.5" cy="320.5" r="3.5" fill="#0f172a"><title>N1:west</title></circle><circle cx="2061.5" cy="320.5" r="3.5" fill="#0f172a"><title>N1:east</title></circle><circle cx="1997.5" cy="265" r="3.5" fill="#0f172a"><title>N1:north</title></circle><circle cx="1997.5" cy="370" r="3.5" fill="#0f172a"><title>N1:south</title></circle><circle cx="1831.5" cy="1024" r="3.5" fill="#0f172a"><title>N2:west</title></circle><circle cx="1994.5" cy="1024" r="3.5" fill="#0f172a"><title>N2:east</title></circle><circle cx="1916" cy="1053" r="3.5" fill="#0f172a"><title>N2:south</title></circle><circle cx="1955.5" cy="1253" r="3.5" fill="#0f172a"><title>N3:west</title></circle><circle cx="2054.5" cy="1253" r="3.5" fill="#0f172a"><title>N3:east</title></circle><circle cx="738.5" cy="568" r="3.5" fill="#0f172a"><title>N4:west</title></circle><circle cx="807" cy="606.5" r="3.5" fill="#0f172a"><title>N4:south</title></circle><circle cx="1369.5" cy="1477" r="3.5" fill="#0f172a"><title>N5:west</title></circle><circle cx="1454" cy="1442" r="3.5" fill="#0f172a"><title>N5:north</title></circle><circle cx="1588" cy="1261" r="3.5" fill="#0f172a"><title>N6:east</title></circle><circle cx="1522.5" cy="1214" r="3.5" fill="#0f172a"><title>N6:north</title></circle><circle cx="799" cy="833.8" r="3.5" fill="#0f172a"><title>N7:south</title></circle><circle cx="1897.5" cy="84" r="3.5" fill="#0f172a"><title>N8:east</title></circle><circle cx="1827.5" cy="37" r="3.5" fill="#0f172a"><title>N8:north</title></circle><circle cx="1827.5" cy="125" r="3.5" fill="#0f172a"><title>N8:south</title></circle><circle cx="602.5" cy="795.5" r="3.5" fill="#0f172a"><title>N9:east</title></circle><circle cx="562" cy="750" r="3.5" fill="#0f172a"><title>N9:north</title></circle><circle cx="562" cy="835" r="3.5" fill="#0f172a"><title>N9:south</title></circle><circle cx="149" cy="69" r="3.5" fill="#0f172a"><title>N10:west</title></circle><circle cx="205" cy="27" r="3.5" fill="#0f172a"><title>N10:north</title></circle><circle cx="2065.5" cy="1681.5" r="3.5" fill="#0f172a"><title>N11:east</title></circle><circle cx="1986.5" cy="1640" r="3.5" fill="#0f172a"><title>N11:north</title></circle><circle cx="1594.5" cy="610" r="3.5" fill="#0f172a"><title>N13:south</title></circle><circle cx="1326.5" cy="331.5" r="3.5" fill="#0f172a"><title>N14:west</title></circle><circle cx="1469.5" cy="331.5" r="3.5" fill="#0f172a"><title>N14:east</title></circle><circle cx="1401" cy="292.5" r="3.5" fill="#0f172a"><title>N14:north</title></circle><circle cx="1401" cy="364.5" r="3.5" fill="#0f172a"><title>N14:south</title></circle><circle cx="632.5" cy="1012" r="3.5" fill="#0f172a"><title>N15:north</title></circle><circle cx="632.5" cy="1074" r="3.5" fill="#0f172a"><title>N15:south</title></circle><circle cx="1721.5" cy="88.5" r="3.5" fill="#0f172a"><title>N16:east</title></circle><circle cx="1670.5" cy="125" r="3.5" fill="#0f172a"><title>N16:south</title></circle><circle cx="1182.5" cy="572.5" r="3.5" fill="#0f172a"><title>N17:west</title></circle><circle cx="1252.5" cy="529" r="3.5" fill="#0f172a"><title>N17:north</title></circle><circle cx="798" cy="994.5" r="3.5" fill="#0f172a"><title>N18:north</title></circle><circle cx="798" cy="1054.5" r="3.5" fill="#0f172a"><title>N18:south</title></circle><circle cx="893.5" cy="1027.5" r="3.5" fill="#0f172a"><title>N19:west</title></circle><circle cx="1022.5" cy="1027.5" r="3.5" fill="#0f172a"><title>N19:east</title></circle><circle cx="961" cy="975" r="3.5" fill="#0f172a"><title>N19:north</title></circle><circle cx="961" cy="1074" r="3.5" fill="#0f172a"><title>N19:south</title></circle><circle cx="1318" cy="1261.5" r="3.5" fill="#0f172a"><title>N20:west</title></circle><circle cx="1421" cy="1261.5" r="3.5" fill="#0f172a"><title>N20:east</title></circle><circle cx="1372.5" cy="1302" r="3.5" fill="#0f172a"><title>N20:south</title></circle><circle cx="893.5" cy="790.25" r="3.5" fill="#0f172a"><title>N21:west</title></circle><circle cx="1021.5" cy="790.25" r="3.5" fill="#0f172a"><title>N21:east</title></circle><circle cx="960.5" cy="755.25" r="3.5" fill="#0f172a"><title>N21:north</title></circle><circle cx="960.5" cy="819.25" r="3.5" fill="#0f172a"><title>N21:south</title></circle><circle cx="27" cy="53" r="3.5" fill="#0f172a"><title>N22:west</title></circle><circle cx="81" cy="79" r="3.5" fill="#0f172a"><title>N22:south</title></circle><circle cx="787" cy="326.5" r="3.5" fill="#0f172a"><title>N23:east</title></circle><circle cx="735.5" cy="358" r="3.5" fill="#0f172a"><title>N23:south</title></circle><circle cx="1112.5" cy="1250.5" r="3.5" fill="#0f172a"><title>N24:east</title></circle><circle cx="1072" cy="1214" r="3.5" fill="#0f172a"><title>N24:north</title></circle><circle cx="1052.5" cy="1027.3333333333335" r="3.5" fill="#0f172a"><title>N25:west</title></circle><circle cx="1115.5" cy="1073.3333333333335" r="3.5" fill="#0f172a"><title>N25:south</title></circle><circle cx="1945.5" cy="80" r="3.5" fill="#0f172a"><title>N27:west</title></circle><circle cx="2065.5" cy="80" r="3.5" fill="#0f172a"><title>N27:east</title></circle><circle cx="2008.5" cy="125" r="3.5" fill="#0f172a"><title>N27:south</title></circle><circle cx="1990.5" cy="558" r="3.5" fill="#0f172a"><title>N28:east</title></circle><circle cx="565" cy="558.5" r="3.5" fill="#0f172a"><title>N29:west</title></circle><circle cx="620.5" cy="600" r="3.5" fill="#0f172a"><title>N29:south</title></circle><circle cx="899.5" cy="569.8333333333333" r="3.5" fill="#0f172a"><title>N31:west</title></circle><circle cx="959" cy="527.3333333333333" r="3.5" fill="#0f172a"><title>N31:north</title></circle><circle cx="275" cy="80.5" r="3.5" fill="#0f172a"><title>N32:west</title></circle><circle cx="402" cy="80.5" r="3.5" fill="#0f172a"><title>N32:east</title></circle><circle cx="341.5" cy="27" r="3.5" fill="#0f172a"><title>N32:north</title></circle></svg>