<svg xmlns="http://www.w3.org/2000/svg" viewBox="-8 -8 220 288" style="font-family:system-ui;background:white"><polyline fill="none" stroke="#2563eb" stroke-width="2" points="92,220 112,220 112,56 142,56"/><polyline fill="none" stroke="#9333ea" stroke-width="2" points="92,140 122,140 122,144 142,144"/><polyline fill="none" stroke="#059669" stroke-width="2" points="92,100 142,100"/><polyline fill="none" stroke="#d97706" stroke-width="2" points="92,180 102,180 102,12 142,12"/><rect x="12" y="80" width="80" height="180" rx="5" fill="#f1f5f9" stroke="#94a3b8"/><text x="22" y="98" font-size="12">S</text><circle cx="92" cy="100" r="3" fill="#0f172a"/><text x="67" y="104" font-size="10">P0</text><circle cx="92" cy="140" r="3" fill="#0f172a"/><text x="67" y="144" font-size="10">P1</text><circle cx="92" cy="180" r="3" fill="#0f172a"/><text x="67" y="184" font-size="10">P2</text><circle cx="92" cy="220" r="3" fill="#0f172a"/><text x="67" y="224" font-size="10">P3</text><rect x="142" y="100" width="50" height="24" rx="5" fill="#f1f5f9" stroke="#94a3b8"/><text x="152" y="118" font-size="12">N0</text><rect x="142" y="144" width="50" height="24" rx="5" fill="#f1f5f9" stroke="#94a3b8"/><text x="152" y="162" font-size="12">N1</text><rect x="142" y="12" width="50" height="24" rx="5" fill="#f1f5f9" stroke="#94a3b8"/><text x="152" y="30" font-size="12">N2</text><rect x="142" y="56" width="50" height="24" rx="5" fill="#f1f5f9" stroke="#94a3b8"/><text x="152" y="74" font-size="12">N3</text></svg>