<svg xmlns="http://www.w3.org/2000/svg" viewBox="-24 -41 3209.5 1810" role="img" aria-label="Real ELK" style="font-family:system-ui;background:white"><defs><marker id="elk-5-arrow0" markerWidth="7" markerHeight="7" refX="6" refY="3" orient="auto" markerUnits="userSpaceOnUse"><path d="M0,0 L6,3 L0,6" fill="#2563eb"/></marker><marker id="elk-5-arrow1" markerWidth="7" markerHeight="7" refX="6" refY="3" orient="auto" markerUnits="userSpaceOnUse"><path d="M0,0 L6,3 L0,6" fill="#9333ea"/></marker><marker id="elk-5-arrow2" markerWidth="7" markerHeight="7" refX="6" refY="3" orient="auto" markerUnits="userSpaceOnUse"><path d="M0,0 L6,3 L0,6" fill="#059669"/></marker><marker id="elk-5-arrow3" markerWidth="7" markerHeight="7" refX="6" refY="3" orient="auto" markerUnits="userSpaceOnUse"><path d="M0,0 L6,3 L0,6" fill="#d97706"/></marker><marker id="elk-5-arrow4" markerWidth="7" markerHeight="7" refX="6" refY="3" orient="auto" markerUnits="userSpaceOnUse"><path d="M0,0 L6,3 L0,6" fill="#db2777"/></marker></defs><g><title>N1 · 105 × 98 · parent none</title><rect x="209" y="694" width="105" height="98" rx="6" fill="#fff" stroke="#94a3b8"/><text x="219" y="717" font-size="13">N1</text></g><g><title>N2 · 119 × 62 · parent none</title><rect x="345" y="896" width="119" height="62" rx="6" fill="#fff" stroke="#94a3b8"/><text x="355" y="919" font-size="13">N2</text></g><g><title>N3 · 109 × 55 · parent none</title><rect x="351" y="573" width="109" height="55" rx="6" fill="#fff" stroke="#94a3b8"/><text x="361" y="596" font-size="13">N3</text></g><g><title>N4 · 87 × 95 · parent none</title><rect x="1283" y="924" width="87" height="95" rx="6" fill="#fff" stroke="#94a3b8"/><text x="1293" y="947" font-size="13">N4</text></g><g><title>N5 · 144 × 49 · parent none</title><rect x="2101" y="539" width="144" height="49" rx="6" fill="#fff" stroke="#94a3b8"/><text x="2111" y="562" font-size="13">N5</text></g><g><title>N6 · 131 × 66 · parent none</title><rect x="983" y="1065" width="131" height="66" rx="6" fill="#fff" stroke="#94a3b8"/><text x="993" y="1088" font-size="13">N6</text></g><g><title>N7 · 104 × 88 · parent none</title><rect x="2187" y="1063" width="104" height="88" rx="6" fill="#fff" stroke="#94a3b8"/><text x="2197" y="1086" font-size="13">N7</text></g><g><title>N8 · 140 × 55 · parent none</title><rect x="1737" y="1055" width="140" height="55" rx="6" fill="#fff" stroke="#94a3b8"/><text x="1747" y="1078" font-size="13">N8</text></g><g><title>N9 · 103 × 53 · parent none</title><rect x="1164" y="703" width="103" height="53" rx="6" fill="#fff" stroke="#94a3b8"/><text x="1174" y="726" font-size="13">N9</text></g><g><title>N10 · 157 × 55 · parent none</title><rect x="2464" y="99" width="157" height="55" rx="6" fill="#fff" stroke="#94a3b8"/><text x="2474" y="122" font-size="13">N10</text></g><g><title>N11 · 91 × 55 · parent none</title><rect x="2647" y="99" width="91" height="55" rx="6" fill="#fff" stroke="#94a3b8"/><text x="2657" y="122" font-size="13">N11</text></g><g><title>N12 · 113 × 78 · parent none</title><rect x="1154" y="426" width="113" height="78" rx="6" fill="#fff" stroke="#94a3b8"/><text x="1164" y="449" font-size="13">N12</text></g><g><title>N13 · 152 × 84 · parent none</title><rect x="1141" y="1343" width="152" height="84" rx="6" fill="#fff" stroke="#94a3b8"/><text x="1151" y="1366" font-size="13">N13</text></g><g><title>N14 · 156 × 91 · parent none</title><rect x="1919" y="654" width="156" height="91" rx="6" fill="#fff" stroke="#94a3b8"/><text x="1929" y="677" font-size="13">N14</text></g><g><title>N15 · 154 × 56 · parent none</title><rect x="485" y="1349" width="154" height="56" rx="6" fill="#fff" stroke="#94a3b8"/><text x="495" y="1372" font-size="13">N15</text></g><g><title>N16 · 132 × 96 · parent none</title><rect x="79" y="1649" width="132" height="96" rx="6" fill="#fff" stroke="#94a3b8"/><text x="89" y="1672" font-size="13">N16</text></g><g><title>N17 · 92 × 53 · parent none</title><rect x="496" y="895" width="92" height="53" rx="6" fill="#fff" stroke="#94a3b8"/><text x="506" y="918" font-size="13">N17</text></g><g><title>N18 · 105 × 67 · parent none</title><rect x="2375" y="704" width="105" height="67" rx="6" fill="#fff" stroke="#94a3b8"/><text x="2385" y="727" font-size="13">N18</text></g><g><title>N19 · 144 × 60 · parent none</title><rect x="994" y="690" width="144" height="60" rx="6" fill="#fff" stroke="#94a3b8"/><text x="1004" y="713" font-size="13">N19</text></g><g><title>N20 · 94 × 64 · parent none</title><rect x="927" y="1197" width="94" height="64" rx="6" fill="#fff" stroke="#94a3b8"/><text x="937" y="1220" font-size="13">N20</text></g><g><title>N21 · 80 × 79 · parent none</title><rect x="1140" y="1567" width="80" height="79" rx="6" fill="#fff" stroke="#94a3b8"/><text x="1150" y="1590" font-size="13">N21</text></g><g><title>N22 · 83 × 62 · parent none</title><rect x="2358" y="499" width="83" height="62" rx="6" fill="#fff" stroke="#94a3b8"/><text x="2368" y="522" font-size="13">N22</text></g><g><title>N23 · 118 × 66 · parent none</title><rect x="1300" y="802" width="118" height="66" rx="6" fill="#fff" stroke="#94a3b8"/><text x="1310" y="825" font-size="13">N23</text></g><g><title>N24 · 128 × 62 · parent none</title><rect x="1593" y="874" width="128" height="62" rx="6" fill="#fff" stroke="#94a3b8"/><text x="1603" y="897" font-size="13">N24</text></g><g><title>N25 · 90 × 71 · parent none</title><rect x="2358" y="288" width="90" height="71" rx="6" fill="#fff" stroke="#94a3b8"/><text x="2368" y="311" font-size="13">N25</text></g><g><title>N26 · 156 × 88 · parent none</title><rect x="2266" y="50" width="156" height="88" rx="6" fill="#fff" stroke="#94a3b8"/><text x="2276" y="73" font-size="13">N26</text></g><g><title>N27 · 108 × 54 · parent none</title><rect x="2187" y="875" width="108" height="54" rx="6" fill="#fff" stroke="#94a3b8"/><text x="2197" y="898" font-size="13">N27</text></g><g><title>N28 · 110 × 82 · parent none</title><rect x="1378" y="658" width="110" height="82" rx="6" fill="#fff" stroke="#94a3b8"/><text x="1388" y="681" font-size="13">N28</text></g><g><title>N29 · 142 × 66 · parent none</title><rect x="700" y="973" width="142" height="66" rx="6" fill="#fff" stroke="#94a3b8"/><text x="710" y="996" font-size="13">N29</text></g><g><title>N30 · 84 × 78 · parent none</title><rect x="63" y="1509" width="84" height="78" rx="6" fill="#fff" stroke="#94a3b8"/><text x="73" y="1532" font-size="13">N30</text></g><g><title>N31 · 151 × 52 · parent none</title><rect x="1327" y="457" width="151" height="52" rx="6" fill="#fff" stroke="#94a3b8"/><text x="1337" y="480" font-size="13">N31</text></g><g><title>N32 · 114 × 90 · parent none</title><rect x="551" y="1197" width="114" height="90" rx="6" fill="#fff" stroke="#94a3b8"/><text x="561" y="1220" font-size="13">N32</text></g><polyline points="264.5,798 264.5,808 474,808 474,1075 407.5,1075 407.5,964" fill="none" stroke="#2563eb" stroke-width="1.8" marker-end="url(#elk-5-arrow0)"><title>E1: N1:south → N2:south</title></polyline><polyline points="345,958 345,1085 863,1085 863,658 335,658 335,603.5 345,603.5" fill="none" stroke="#9333ea" stroke-width="1.8" marker-end="url(#elk-5-arrow1)"><title>E2: N2 → N3:west</title></polyline><polyline points="345,603.5 335,603.5 335,658 199,658 199,808 264.5,808 264.5,798" fill="none" stroke="#059669" stroke-width="1.8" marker-end="url(#elk-5-arrow2)"><title>E3: N3:west → N1:south</title></polyline><polyline points="1329.5,1025 1329.5,1273 1329.5,1273 1329.5,1025" fill="none" stroke="#d97706" stroke-width="1.8" marker-end="url(#elk-5-arrow3)"><title>E4: N4:south → N4:south</title></polyline><polyline points="2101,588 2101,1147 1051.5,1147 1051.5,1137" fill="none" stroke="#db2777" stroke-width="1.8" marker-end="url(#elk-5-arrow4)"><title>E5: N5 → N6:south</title></polyline><polyline points="2251,566 2261,566 2261,598 967,598 967,1101 977,1101" fill="none" stroke="#2563eb" stroke-width="1.8" marker-end="url(#elk-5-arrow0)"><title>E6: N5:east → N6:west</title></polyline><polyline points="1218.5,697 1218.5,648 906,648 906,1245 671,1245" fill="none" stroke="#9333ea" stroke-width="1.8" marker-end="url(#elk-5-arrow1)"><title>E7: N9:north → N32:east</title></polyline><polyline points="2358,359 2358,499" fill="none" stroke="#059669" stroke-width="1.8" marker-end="url(#elk-5-arrow2)"><title>E8: N25 → N22</title></polyline><polyline points="63,1587 63,1700 73,1700" fill="none" stroke="#d97706" stroke-width="1.8" marker-end="url(#elk-5-arrow3)"><title>E9: N30 → N16:west</title></polyline><polyline points="351,628 351,638 470,638 470,410 1213.5,410 1213.5,420" fill="none" stroke="#db2777" stroke-width="1.8" marker-end="url(#elk-5-arrow4)"><title>E10: N3 → N12:north</title></polyline><polyline points="565,1343 565,1333 1309,1333 1309,1443 1220,1443 1220,1433" fill="none" stroke="#2563eb" stroke-width="1.8" marker-end="url(#elk-5-arrow0)"><title>E11: N15:north → N13:south</title></polyline><polyline points="2347,44 2347,24 2250,24 2250,164 2347,164 2347,144" fill="none" stroke="#9333ea" stroke-width="1.8" marker-end="url(#elk-5-arrow1)"><title>E12: N26:north → N26:south</title></polyline><polyline points="1329.5,1025 1329.5,1045 967,1045 967,1101 977,1101" fill="none" stroke="#059669" stroke-width="1.8" marker-end="url(#elk-5-arrow2)"><title>E13: N4:south → N6:west</title></polyline><polyline points="1327,509 1327,519 324,519 324,808 264.5,808 264.5,798" fill="none" stroke="#d97706" stroke-width="1.8" marker-end="url(#elk-5-arrow3)"><title>E14: N31 → N1:south</title></polyline><polyline points="1218.5,697 1218.5,648 852,648 852,1065 545,1065 545,954" fill="none" stroke="#db2777" stroke-width="1.8" marker-end="url(#elk-5-arrow4)"><title>E15: N9:north → N17:south</title></polyline><polyline points="1273,468 1283,468 1283,924" fill="none" stroke="#2563eb" stroke-width="1.8" marker-end="url(#elk-5-arrow0)"><title>E16: N12:east → N4</title></polyline><polyline points="264.5,798 264.5,808 74,808 74,1463 63,1463 63,1509" fill="none" stroke="#9333ea" stroke-width="1.8" marker-end="url(#elk-5-arrow1)"><title>E17: N1:south → N30</title></polyline><polyline points="977,1267 977,1277 1047,1277 1047,1177 2681,1177 2681,817 2631,817 2631,170 2748,170 2748,83 2545.5,83 2545.5,93" fill="none" stroke="#059669" stroke-width="1.8" marker-end="url(#elk-5-arrow2)"><title>E18: N20:south → N10:north</title></polyline><polyline points="1218.5,697 1218.5,648 1362,648 1362,796" fill="none" stroke="#d97706" stroke-width="1.8" marker-end="url(#elk-5-arrow3)"><title>E19: N9:north → N23:north</title></polyline><polyline points="2187,929 2187,1063" fill="none" stroke="#db2777" stroke-width="1.8" marker-end="url(#elk-5-arrow4)"><title>E20: N27 → N7</title></polyline><polyline points="671,1245 906,1245 906,1297 485,1297 485,1349" fill="none" stroke="#2563eb" stroke-width="1.8" marker-end="url(#elk-5-arrow0)"><title>E21: N32:east → N15</title></polyline><polyline points="2454,326 2464,326 2464,369 1327,369 1327,457" fill="none" stroke="#9333ea" stroke-width="1.8" marker-end="url(#elk-5-arrow1)"><title>E22: N25:east → N31</title></polyline><polyline points="1213.5,510 1213.5,520 485,520 485,1349" fill="none" stroke="#059669" stroke-width="1.8" marker-end="url(#elk-5-arrow2)"><title>E23: N12:south → N15</title></polyline><polyline points="2545.5,93 2545.5,83 2631,83 2631,1167 2242,1167 2242,1157" fill="none" stroke="#d97706" stroke-width="1.8" marker-end="url(#elk-5-arrow3)"><title>E24: N10:north → N7:south</title></polyline><polyline points="1069,756 1069,766 334,766 334,1700 217,1700" fill="none" stroke="#db2777" stroke-width="1.8" marker-end="url(#elk-5-arrow4)"><title>E25: N19:south → N16:east</title></polyline><polyline points="1154,504 1154,723 1144,723" fill="none" stroke="#2563eb" stroke-width="1.8" marker-end="url(#elk-5-arrow0)"><title>E26: N12 → N19:east</title></polyline><polyline points="1913,702 1903,702 1903,859 2692,859 2692,1187 1124,1187 1124,1187 1319,1187 1319,1557 1124,1557 1124,1610 1134,1610" fill="none" stroke="#9333ea" stroke-width="1.8" marker-end="url(#elk-5-arrow1)"><title>E27: N14:west → N21:west</title></polyline><polyline points="2000,648 2000,638 1604,638 1604,828 1593,828 1593,874" fill="none" stroke="#059669" stroke-width="1.8" marker-end="url(#elk-5-arrow2)"><title>E28: N14:north → N24</title></polyline><polyline points="2464,154 2464,200 2475,200 2475,405 2271,405 2271,608 1919,608 1919,654" fill="none" stroke="#d97706" stroke-width="1.8" marker-end="url(#elk-5-arrow3)"><title>E29: N10 → N14</title></polyline><polyline points="2430.5,698 2430.5,688 2561,688 2561,781 2187,781 2187,875" fill="none" stroke="#db2777" stroke-width="1.8" marker-end="url(#elk-5-arrow4)"><title>E30: N18:north → N27</title></polyline><polyline points="2242,1157 2242,1167 1037,1167 1037,1232 1027,1232" fill="none" stroke="#2563eb" stroke-width="1.8" marker-end="url(#elk-5-arrow0)"><title>E31: N7:south → N20:east</title></polyline><polyline points="1069,756 1069,766 663,766 663,1075 407.5,1075 407.5,964" fill="none" stroke="#9333ea" stroke-width="1.8" marker-end="url(#elk-5-arrow1)"><title>E32: N19:south → N2:south</title></polyline><polyline points="1300,868 1300,878 956,878 956,1097 906,1097 906,1245 671,1245" fill="none" stroke="#059669" stroke-width="1.8" marker-end="url(#elk-5-arrow2)"><title>E33: N23 → N32:east</title></polyline><polyline points="565,1411 565,1421 63,1421 63,1509" fill="none" stroke="#d97706" stroke-width="1.8" marker-end="url(#elk-5-arrow3)"><title>E34: N15:south → N30</title></polyline><polyline points="1378,740 1378,756 1362,756 1362,796" fill="none" stroke="#db2777" stroke-width="1.8" marker-end="url(#elk-5-arrow4)"><title>E35: N28 → N23:north</title></polyline><polyline points="1220,1433 1220,1557 1124,1557 1124,1610 1134,1610" fill="none" stroke="#2563eb" stroke-width="1.8" marker-end="url(#elk-5-arrow0)"><title>E36: N13:south → N21:west</title></polyline><polyline points="1164,756 1164,766 1493,766 1493,1045 1329.5,1045 1329.5,1025" fill="none" stroke="#9333ea" stroke-width="1.8" marker-end="url(#elk-5-arrow1)"><title>E37: N9 → N4:south</title></polyline><polyline points="73,1700 63,1700 63,1633 157,1633 157,648 1218.5,648 1218.5,697" fill="none" stroke="#059669" stroke-width="1.8" marker-end="url(#elk-5-arrow2)"><title>E38: N16:west → N9:north</title></polyline><polyline points="2464,154 2464,326 2454,326" fill="none" stroke="#d97706" stroke-width="1.8" marker-end="url(#elk-5-arrow3)"><title>E39: N10 → N25:east</title></polyline><polyline points="671,1245 906,1245 906,1287 917,1287 917,1157 2111,1157 2111,1053 2187,1053 2187,1063" fill="none" stroke="#db2777" stroke-width="1.8" marker-end="url(#elk-5-arrow4)"><title>E40: N32:east → N7</title></polyline><polyline points="2000,648 2000,638 2272,638 2272,823 2244,823 2244,869" fill="none" stroke="#2563eb" stroke-width="1.8" marker-end="url(#elk-5-arrow0)"><title>E41: N14:north → N27:north</title></polyline><polyline points="2251,566 2261,566 2261,823 2244,823 2244,869" fill="none" stroke="#9333ea" stroke-width="1.8" marker-end="url(#elk-5-arrow1)"><title>E42: N5:east → N27:north</title></polyline><polyline points="1731,1085.5 1124,1085.5 1124,1610 1134,1610" fill="none" stroke="#059669" stroke-width="1.8" marker-end="url(#elk-5-arrow2)"><title>E43: N8:west → N21:west</title></polyline><polyline points="1321,486 1294,486 1294,529 2332,529 2332,628 2112,628 2112,761 2000,761 2000,751" fill="none" stroke="#d97706" stroke-width="1.8" marker-end="url(#elk-5-arrow3)"><title>E44: N31:west → N14:south</title></polyline><polyline points="994,750 994,776 1543,776 1543,1055 774,1055 774,1045" fill="none" stroke="#db2777" stroke-width="1.8" marker-end="url(#elk-5-arrow4)"><title>E45: N19 → N29:south</title></polyline><polyline points="1731,1085.5 1124,1085.5 1124,1187 535,1187 535,1245 545,1245" fill="none" stroke="#2563eb" stroke-width="1.8" marker-end="url(#elk-5-arrow0)"><title>E46: N8:west → N32:west</title></polyline><polyline points="1027,1232 1037,1232 1037,1287 906,1287 906,1245 671,1245" fill="none" stroke="#9333ea" stroke-width="1.8" marker-end="url(#elk-5-arrow1)"><title>E47: N20:east → N32:east</title></polyline><polyline points="1218.5,697 1218.5,648 1893,648 1893,1085.5 1883,1085.5" fill="none" stroke="#059669" stroke-width="1.8" marker-end="url(#elk-5-arrow2)"><title>E48: N9:north → N8:east</title></polyline><polyline points="988,723 978,723 978,786 1593,786 1593,874" fill="none" stroke="#d97706" stroke-width="1.8" marker-end="url(#elk-5-arrow3)"><title>E49: N19:west → N24</title></polyline><polyline points="1362,796 1362,756 1737,756 1737,1055" fill="none" stroke="#db2777" stroke-width="1.8" marker-end="url(#elk-5-arrow4)"><title>E50: N23:north → N8</title></polyline><polyline points="1154,504 1154,530 1294,530 1294,486 1321,486" fill="none" stroke="#2563eb" stroke-width="1.8" marker-end="url(#elk-5-arrow0)"><title>E51: N12 → N31:west</title></polyline><polyline points="2352,326.5 2282,326.5 2282,618 2091,618 2091,702.5 2081,702.5" fill="none" stroke="#9333ea" stroke-width="1.8" marker-end="url(#elk-5-arrow1)"><title>E52: N25:west → N14:east</title></polyline><rect x="442" y="818" width="30" height="22" rx="4" fill="#fff" stroke="#cbd5e1"/><text x="450" y="833" font-size="11">E1</text><rect x="167" y="694" width="30" height="22" rx="4" fill="#fff" stroke="#cbd5e1"/><text x="175" y="709" font-size="11">E3</text><rect x="935" y="846" width="30" height="22" rx="4" fill="#fff" stroke="#cbd5e1"/><text x="943" y="861" font-size="11">E6</text><rect x="874" y="776" width="30" height="22" rx="4" fill="#fff" stroke="#cbd5e1"/><text x="882" y="791" font-size="11">E7</text><rect x="2326" y="415" width="30" height="22" rx="4" fill="#fff" stroke="#cbd5e1"/><text x="2334" y="430" font-size="11">E8</text><rect x="431" y="487" width="37" height="22" rx="4" fill="#fff" stroke="#cbd5e1"/><text x="439" y="502" font-size="11">E10</text><rect x="2211" y="83" width="37" height="22" rx="4" fill="#fff" stroke="#cbd5e1"/><text x="2219" y="98" font-size="11">E12</text><rect x="813" y="889" width="37" height="22" rx="4" fill="#fff" stroke="#cbd5e1"/><text x="821" y="904" font-size="11">E15</text><rect x="1244" y="566" width="37" height="22" rx="4" fill="#fff" stroke="#cbd5e1"/><text x="1252" y="581" font-size="11">E16</text><rect x="35" y="1389" width="37" height="22" rx="4" fill="#fff" stroke="#cbd5e1"/><text x="43" y="1404" font-size="11">E17</text><rect x="2642" y="827" width="37" height="22" rx="4" fill="#fff" stroke="#cbd5e1"/><text x="2650" y="842" font-size="11">E18</text><rect x="2148" y="985" width="37" height="22" rx="4" fill="#fff" stroke="#cbd5e1"/><text x="2156" y="1000" font-size="11">E20</text><rect x="1288" y="379" width="37" height="22" rx="4" fill="#fff" stroke="#cbd5e1"/><text x="1296" y="394" font-size="11">E22</text><rect x="446" y="776" width="37" height="22" rx="4" fill="#fff" stroke="#cbd5e1"/><text x="454" y="791" font-size="11">E23</text><rect x="295" y="854" width="37" height="22" rx="4" fill="#fff" stroke="#cbd5e1"/><text x="303" y="869" font-size="11">E25</text><rect x="1565" y="724" width="37" height="22" rx="4" fill="#fff" stroke="#cbd5e1"/><text x="1573" y="739" font-size="11">E28</text><rect x="2232" y="415" width="37" height="22" rx="4" fill="#fff" stroke="#cbd5e1"/><text x="2240" y="430" font-size="11">E29</text><rect x="2522" y="698" width="37" height="22" rx="4" fill="#fff" stroke="#cbd5e1"/><text x="2530" y="713" font-size="11">E30</text><rect x="624" y="896" width="37" height="22" rx="4" fill="#fff" stroke="#cbd5e1"/><text x="632" y="911" font-size="11">E32</text><rect x="917" y="1065" width="37" height="22" rx="4" fill="#fff" stroke="#cbd5e1"/><text x="925" y="1080" font-size="11">E33</text><rect x="24" y="1431" width="37" height="22" rx="4" fill="#fff" stroke="#cbd5e1"/><text x="32" y="1446" font-size="11">E34</text><rect x="1181" y="1489" width="37" height="22" rx="4" fill="#fff" stroke="#cbd5e1"/><text x="1189" y="1504" font-size="11">E36</text><rect x="1454" y="924" width="37" height="22" rx="4" fill="#fff" stroke="#cbd5e1"/><text x="1462" y="939" font-size="11">E37</text><rect x="2425" y="210" width="37" height="22" rx="4" fill="#fff" stroke="#cbd5e1"/><text x="2433" y="225" font-size="11">E39</text><rect x="2114" y="1063" width="37" height="22" rx="4" fill="#fff" stroke="#cbd5e1"/><text x="2122" y="1078" font-size="11">E40</text><rect x="2222" y="791" width="37" height="22" rx="4" fill="#fff" stroke="#cbd5e1"/><text x="2230" y="806" font-size="11">E42</text><rect x="2293" y="596" width="37" height="22" rx="4" fill="#fff" stroke="#cbd5e1"/><text x="2301" y="611" font-size="11">E44</text><rect x="1504" y="967" width="37" height="22" rx="4" fill="#fff" stroke="#cbd5e1"/><text x="1512" y="982" font-size="11">E45</text><rect x="496" y="1197" width="37" height="22" rx="4" fill="#fff" stroke="#cbd5e1"/><text x="504" y="1212" font-size="11">E46</text><rect x="1854" y="977" width="37" height="22" rx="4" fill="#fff" stroke="#cbd5e1"/><text x="1862" y="992" font-size="11">E48</text><rect x="1554" y="796" width="37" height="22" rx="4" fill="#fff" stroke="#cbd5e1"/><text x="1562" y="811" font-size="11">E49</text><rect x="1698" y="796" width="37" height="22" rx="4" fill="#fff" stroke="#cbd5e1"/><text x="1706" y="811" font-size="11">E50</text><rect x="2285" y="497" width="37" height="22" rx="4" fill="#fff" stroke="#cbd5e1"/><text x="2293" y="512" font-size="11">E52</text><circle cx="264.5" cy="795" r="3.5" fill="#0f172a"><title>N1:south</title></circle><circle cx="407.5" cy="961" r="3.5" fill="#0f172a"><title>N2:south</title></circle><circle cx="348" cy="603.5" r="3.5" fill="#0f172a"><title>N3:west</title></circle><circle cx="408.5" cy="570" r="3.5" fill="#0f172a"><title>N3:north</title></circle><circle cx="1329.5" cy="1022" r="3.5" fill="#0f172a"><title>N4:south</title></circle><circle cx="2098" cy="566.5" r="3.5" fill="#0f172a"><title>N5:west</title></circle><circle cx="2248" cy="566" r="3.5" fill="#0f172a"><title>N5:east</title></circle><circle cx="980" cy="1101" r="3.5" fill="#0f172a"><title>N6:west</title></circle><circle cx="1051.5" cy="1134" r="3.5" fill="#0f172a"><title>N6:south</title></circle><circle cx="2242" cy="1154" r="3.5" fill="#0f172a"><title>N7:south</title></circle><circle cx="1734" cy="1085.5" r="3.5" fill="#0f172a"><title>N8:west</title></circle><circle cx="1880" cy="1085.5" r="3.5" fill="#0f172a"><title>N8:east</title></circle><circle cx="1218.5" cy="700" r="3.5" fill="#0f172a"><title>N9:north</title></circle><circle cx="2545.5" cy="96" r="3.5" fill="#0f172a"><title>N10:north</title></circle><circle cx="2644" cy="129.5" r="3.5" fill="#0f172a"><title>N11:west</title></circle><circle cx="2695.5" cy="96" r="3.5" fill="#0f172a"><title>N11:north</title></circle><circle cx="2695.5" cy="157" r="3.5" fill="#0f172a"><title>N11:south</title></circle><circle cx="1270" cy="468" r="3.5" fill="#0f172a"><title>N12:east</title></circle><circle cx="1213.5" cy="423" r="3.5" fill="#0f172a"><title>N12:north</title></circle><circle cx="1213.5" cy="507" r="3.5" fill="#0f172a"><title>N12:south</title></circle><circle cx="1138" cy="1388" r="3.5" fill="#0f172a"><title>N13:west</title></circle><circle cx="1296" cy="1388" r="3.5" fill="#0f172a"><title>N13:east</title></circle><circle cx="1220" cy="1430" r="3.5" fill="#0f172a"><title>N13:south</title></circle><circle cx="1916" cy="702" r="3.5" fill="#0f172a"><title>N14:west</title></circle><circle cx="2078" cy="702.5" r="3.5" fill="#0f172a"><title>N14:east</title></circle><circle cx="2000" cy="651" r="3.5" fill="#0f172a"><title>N14:north</title></circle><circle cx="2000" cy="748" r="3.5" fill="#0f172a"><title>N14:south</title></circle><circle cx="642" cy="1380" r="3.5" fill="#0f172a"><title>N15:east</title></circle><circle cx="565" cy="1346" r="3.5" fill="#0f172a"><title>N15:north</title></circle><circle cx="565" cy="1408" r="3.5" fill="#0f172a"><title>N15:south</title></circle><circle cx="76" cy="1700" r="3.5" fill="#0f172a"><title>N16:west</title></circle><circle cx="214" cy="1700" r="3.5" fill="#0f172a"><title>N16:east</title></circle><circle cx="148" cy="1646" r="3.5" fill="#0f172a"><title>N16:north</title></circle><circle cx="545" cy="892" r="3.5" fill="#0f172a"><title>N17:north</title></circle><circle cx="545" cy="951" r="3.5" fill="#0f172a"><title>N17:south</title></circle><circle cx="2372" cy="740.5" r="3.5" fill="#0f172a"><title>N18:west</title></circle><circle cx="2483" cy="740.5" r="3.5" fill="#0f172a"><title>N18:east</title></circle><circle cx="2430.5" cy="701" r="3.5" fill="#0f172a"><title>N18:north</title></circle><circle cx="991" cy="723" r="3.5" fill="#0f172a"><title>N19:west</title></circle><circle cx="1141" cy="723" r="3.5" fill="#0f172a"><title>N19:east</title></circle><circle cx="1069" cy="753" r="3.5" fill="#0f172a"><title>N19:south</title></circle><circle cx="1024" cy="1232" r="3.5" fill="#0f172a"><title>N20:east</title></circle><circle cx="977" cy="1264" r="3.5" fill="#0f172a"><title>N20:south</title></circle><circle cx="1137" cy="1610" r="3.5" fill="#0f172a"><title>N21:west</title></circle><circle cx="1223" cy="1609.5" r="3.5" fill="#0f172a"><title>N21:east</title></circle><circle cx="2444" cy="533" r="3.5" fill="#0f172a"><title>N22:east</title></circle><circle cx="2402.5" cy="496" r="3.5" fill="#0f172a"><title>N22:north</title></circle><circle cx="2402.5" cy="564" r="3.5" fill="#0f172a"><title>N22:south</title></circle><circle cx="1297" cy="838" r="3.5" fill="#0f172a"><title>N23:west</title></circle><circle cx="1362" cy="799" r="3.5" fill="#0f172a"><title>N23:north</title></circle><circle cx="1724" cy="908" r="3.5" fill="#0f172a"><title>N24:east</title></circle><circle cx="1660" cy="939" r="3.5" fill="#0f172a"><title>N24:south</title></circle><circle cx="2355" cy="326.5" r="3.5" fill="#0f172a"><title>N25:west</title></circle><circle cx="2451" cy="326" r="3.5" fill="#0f172a"><title>N25:east</title></circle><circle cx="2263" cy="97" r="3.5" fill="#0f172a"><title>N26:west</title></circle><circle cx="2425" cy="97" r="3.5" fill="#0f172a"><title>N26:east</title></circle><circle cx="2347" cy="47" r="3.5" fill="#0f172a"><title>N26:north</title></circle><circle cx="2347" cy="141" r="3.5" fill="#0f172a"><title>N26:south</title></circle><circle cx="2244" cy="872" r="3.5" fill="#0f172a"><title>N27:north</title></circle><circle cx="1375" cy="702" r="3.5" fill="#0f172a"><title>N28:west</title></circle><circle cx="774" cy="970" r="3.5" fill="#0f172a"><title>N29:north</title></circle><circle cx="774" cy="1042" r="3.5" fill="#0f172a"><title>N29:south</title></circle><circle cx="1324" cy="486" r="3.5" fill="#0f172a"><title>N31:west</title></circle><circle cx="548" cy="1245" r="3.5" fill="#0f172a"><title>N32:west</title></circle><circle cx="668" cy="1245" r="3.5" fill="#0f172a"><title>N32:east</title></circle></svg>